<mxfile host="app.diagrams.net" modified="2020-11-30T15:44:26.128Z" agent="5.0 (Macintosh)" etag="Il8Nv95Q_AWSVotoudNk" version="13.10.2" type="github">
  <diagram id="xl6M9EQaSiFgEsb6ymEG" name="Page-1">
    <mxGraphModel dx="944" dy="551" grid="1" gridSize="10" guides="1" tooltips="1" connect="1" arrows="1" fold="1" page="1" pageScale="1" pageWidth="850" pageHeight="1100" math="0" shadow="0">
      <root>
        <mxCell id="0" />
        <mxCell id="1" parent="0" />
        <mxCell id="GCJxB1RPTs2br_yxcwbv-110" style="edgeStyle=orthogonalEdgeStyle;rounded=0;orthogonalLoop=1;jettySize=auto;html=1;exitX=1;exitY=0.75;exitDx=0;exitDy=0;entryX=0;entryY=0.75;entryDx=0;entryDy=0;" parent="1" source="GCJxB1RPTs2br_yxcwbv-19" target="GCJxB1RPTs2br_yxcwbv-104" edge="1">
          <mxGeometry relative="1" as="geometry" />
        </mxCell>
        <mxCell id="GCJxB1RPTs2br_yxcwbv-111" style="edgeStyle=orthogonalEdgeStyle;rounded=0;orthogonalLoop=1;jettySize=auto;html=1;exitX=1;exitY=0.25;exitDx=0;exitDy=0;entryX=0.25;entryY=0;entryDx=0;entryDy=0;" parent="1" source="GCJxB1RPTs2br_yxcwbv-19" target="GCJxB1RPTs2br_yxcwbv-105" edge="1">
          <mxGeometry relative="1" as="geometry" />
        </mxCell>
        <mxCell id="GCJxB1RPTs2br_yxcwbv-19" value="Authentication(Gateway)" style="rounded=0;whiteSpace=wrap;html=1;fillColor=#dae8fc;strokeColor=#6c8ebf;" parent="1" vertex="1">
          <mxGeometry x="40" y="110" width="250" height="70" as="geometry" />
        </mxCell>
        <mxCell id="GCJxB1RPTs2br_yxcwbv-23" value="Permission" style="shape=table;startSize=30;container=1;collapsible=1;childLayout=tableLayout;fixedRows=1;rowLines=0;fontStyle=1;align=center;resizeLast=1;fillColor=#dae8fc;strokeColor=#6c8ebf;" parent="1" vertex="1">
          <mxGeometry x="50" y="220" width="170" height="155" as="geometry" />
        </mxCell>
        <mxCell id="GCJxB1RPTs2br_yxcwbv-24" value="" style="shape=partialRectangle;collapsible=0;dropTarget=0;pointerEvents=0;fillColor=#dae8fc;top=0;left=0;bottom=1;right=0;points=[[0,0.5],[1,0.5]];portConstraint=eastwest;strokeColor=#6c8ebf;" parent="GCJxB1RPTs2br_yxcwbv-23" vertex="1">
          <mxGeometry y="30" width="170" height="30" as="geometry" />
        </mxCell>
        <mxCell id="GCJxB1RPTs2br_yxcwbv-25" value="PK" style="shape=partialRectangle;connectable=0;fillColor=#dae8fc;top=0;left=0;bottom=0;right=0;fontStyle=1;overflow=hidden;strokeColor=#6c8ebf;" parent="GCJxB1RPTs2br_yxcwbv-24" vertex="1">
          <mxGeometry width="30" height="30" as="geometry" />
        </mxCell>
        <mxCell id="GCJxB1RPTs2br_yxcwbv-26" value="Permission_id" style="shape=partialRectangle;connectable=0;fillColor=#dae8fc;top=0;left=0;bottom=0;right=0;align=left;spacingLeft=6;fontStyle=5;overflow=hidden;strokeColor=#6c8ebf;" parent="GCJxB1RPTs2br_yxcwbv-24" vertex="1">
          <mxGeometry x="30" width="140" height="30" as="geometry" />
        </mxCell>
        <mxCell id="GCJxB1RPTs2br_yxcwbv-27" value="" style="shape=partialRectangle;collapsible=0;dropTarget=0;pointerEvents=0;fillColor=#dae8fc;top=0;left=0;bottom=0;right=0;points=[[0,0.5],[1,0.5]];portConstraint=eastwest;strokeColor=#6c8ebf;" parent="GCJxB1RPTs2br_yxcwbv-23" vertex="1">
          <mxGeometry y="60" width="170" height="30" as="geometry" />
        </mxCell>
        <mxCell id="GCJxB1RPTs2br_yxcwbv-28" value="" style="shape=partialRectangle;connectable=0;fillColor=#dae8fc;top=0;left=0;bottom=0;right=0;editable=1;overflow=hidden;strokeColor=#6c8ebf;" parent="GCJxB1RPTs2br_yxcwbv-27" vertex="1">
          <mxGeometry width="30" height="30" as="geometry" />
        </mxCell>
        <mxCell id="GCJxB1RPTs2br_yxcwbv-29" value="Permission_name" style="shape=partialRectangle;connectable=0;fillColor=#dae8fc;top=0;left=0;bottom=0;right=0;align=left;spacingLeft=6;overflow=hidden;fontStyle=1;strokeColor=#6c8ebf;" parent="GCJxB1RPTs2br_yxcwbv-27" vertex="1">
          <mxGeometry x="30" width="140" height="30" as="geometry" />
        </mxCell>
        <mxCell id="GCJxB1RPTs2br_yxcwbv-30" value="" style="shape=partialRectangle;collapsible=0;dropTarget=0;pointerEvents=0;fillColor=#dae8fc;top=0;left=0;bottom=0;right=0;points=[[0,0.5],[1,0.5]];portConstraint=eastwest;strokeColor=#6c8ebf;" parent="GCJxB1RPTs2br_yxcwbv-23" vertex="1">
          <mxGeometry y="90" width="170" height="30" as="geometry" />
        </mxCell>
        <mxCell id="GCJxB1RPTs2br_yxcwbv-31" value="" style="shape=partialRectangle;connectable=0;fillColor=#dae8fc;top=0;left=0;bottom=0;right=0;editable=1;overflow=hidden;strokeColor=#6c8ebf;" parent="GCJxB1RPTs2br_yxcwbv-30" vertex="1">
          <mxGeometry width="30" height="30" as="geometry" />
        </mxCell>
        <mxCell id="GCJxB1RPTs2br_yxcwbv-32" value="Permission_desc" style="shape=partialRectangle;connectable=0;fillColor=#dae8fc;top=0;left=0;bottom=0;right=0;align=left;spacingLeft=6;overflow=hidden;strokeColor=#6c8ebf;" parent="GCJxB1RPTs2br_yxcwbv-30" vertex="1">
          <mxGeometry x="30" width="140" height="30" as="geometry" />
        </mxCell>
        <mxCell id="GCJxB1RPTs2br_yxcwbv-33" value="" style="shape=partialRectangle;collapsible=0;dropTarget=0;pointerEvents=0;fillColor=#dae8fc;top=0;left=0;bottom=0;right=0;points=[[0,0.5],[1,0.5]];portConstraint=eastwest;strokeColor=#6c8ebf;" parent="GCJxB1RPTs2br_yxcwbv-23" vertex="1">
          <mxGeometry y="120" width="170" height="30" as="geometry" />
        </mxCell>
        <mxCell id="GCJxB1RPTs2br_yxcwbv-34" value="" style="shape=partialRectangle;connectable=0;fillColor=#dae8fc;top=0;left=0;bottom=0;right=0;editable=1;overflow=hidden;strokeColor=#6c8ebf;" parent="GCJxB1RPTs2br_yxcwbv-33" vertex="1">
          <mxGeometry width="30" height="30" as="geometry" />
        </mxCell>
        <mxCell id="GCJxB1RPTs2br_yxcwbv-35" value="update_time" style="shape=partialRectangle;connectable=0;fillColor=#dae8fc;top=0;left=0;bottom=0;right=0;align=left;spacingLeft=6;overflow=hidden;strokeColor=#6c8ebf;" parent="GCJxB1RPTs2br_yxcwbv-33" vertex="1">
          <mxGeometry x="30" width="140" height="30" as="geometry" />
        </mxCell>
        <mxCell id="GCJxB1RPTs2br_yxcwbv-36" value="Role_Permission" style="shape=table;startSize=25;container=1;collapsible=1;childLayout=tableLayout;fixedRows=1;rowLines=0;fontStyle=1;align=center;resizeLast=1;fillColor=#dae8fc;strokeColor=#6c8ebf;" parent="1" vertex="1">
          <mxGeometry x="250" y="225" width="140" height="150" as="geometry" />
        </mxCell>
        <mxCell id="GCJxB1RPTs2br_yxcwbv-37" value="" style="shape=partialRectangle;collapsible=0;dropTarget=0;pointerEvents=0;fillColor=#dae8fc;top=0;left=0;bottom=1;right=0;points=[[0,0.5],[1,0.5]];portConstraint=eastwest;strokeColor=#6c8ebf;" parent="GCJxB1RPTs2br_yxcwbv-36" vertex="1">
          <mxGeometry y="25" width="140" height="30" as="geometry" />
        </mxCell>
        <mxCell id="GCJxB1RPTs2br_yxcwbv-38" value="PK" style="shape=partialRectangle;connectable=0;fillColor=#dae8fc;top=0;left=0;bottom=0;right=0;fontStyle=1;overflow=hidden;strokeColor=#6c8ebf;" parent="GCJxB1RPTs2br_yxcwbv-37" vertex="1">
          <mxGeometry width="30" height="30" as="geometry" />
        </mxCell>
        <mxCell id="GCJxB1RPTs2br_yxcwbv-39" value="Role_Permission_id" style="shape=partialRectangle;connectable=0;fillColor=#dae8fc;top=0;left=0;bottom=0;right=0;align=left;spacingLeft=6;fontStyle=5;overflow=hidden;strokeColor=#6c8ebf;" parent="GCJxB1RPTs2br_yxcwbv-37" vertex="1">
          <mxGeometry x="30" width="110" height="30" as="geometry" />
        </mxCell>
        <mxCell id="GCJxB1RPTs2br_yxcwbv-40" value="" style="shape=partialRectangle;collapsible=0;dropTarget=0;pointerEvents=0;fillColor=#dae8fc;top=0;left=0;bottom=0;right=0;points=[[0,0.5],[1,0.5]];portConstraint=eastwest;strokeColor=#6c8ebf;" parent="GCJxB1RPTs2br_yxcwbv-36" vertex="1">
          <mxGeometry y="55" width="140" height="30" as="geometry" />
        </mxCell>
        <mxCell id="GCJxB1RPTs2br_yxcwbv-41" value="" style="shape=partialRectangle;connectable=0;fillColor=#dae8fc;top=0;left=0;bottom=0;right=0;editable=1;overflow=hidden;strokeColor=#6c8ebf;" parent="GCJxB1RPTs2br_yxcwbv-40" vertex="1">
          <mxGeometry width="30" height="30" as="geometry" />
        </mxCell>
        <mxCell id="GCJxB1RPTs2br_yxcwbv-42" value="Permission_id" style="shape=partialRectangle;connectable=0;fillColor=#dae8fc;top=0;left=0;bottom=0;right=0;align=left;spacingLeft=6;overflow=hidden;strokeColor=#6c8ebf;" parent="GCJxB1RPTs2br_yxcwbv-40" vertex="1">
          <mxGeometry x="30" width="110" height="30" as="geometry" />
        </mxCell>
        <mxCell id="GCJxB1RPTs2br_yxcwbv-43" value="" style="shape=partialRectangle;collapsible=0;dropTarget=0;pointerEvents=0;fillColor=#dae8fc;top=0;left=0;bottom=0;right=0;points=[[0,0.5],[1,0.5]];portConstraint=eastwest;strokeColor=#6c8ebf;" parent="GCJxB1RPTs2br_yxcwbv-36" vertex="1">
          <mxGeometry y="85" width="140" height="30" as="geometry" />
        </mxCell>
        <mxCell id="GCJxB1RPTs2br_yxcwbv-44" value="" style="shape=partialRectangle;connectable=0;fillColor=#dae8fc;top=0;left=0;bottom=0;right=0;editable=1;overflow=hidden;strokeColor=#6c8ebf;" parent="GCJxB1RPTs2br_yxcwbv-43" vertex="1">
          <mxGeometry width="30" height="30" as="geometry" />
        </mxCell>
        <mxCell id="GCJxB1RPTs2br_yxcwbv-45" value="Role_id" style="shape=partialRectangle;connectable=0;fillColor=#dae8fc;top=0;left=0;bottom=0;right=0;align=left;spacingLeft=6;overflow=hidden;strokeColor=#6c8ebf;" parent="GCJxB1RPTs2br_yxcwbv-43" vertex="1">
          <mxGeometry x="30" width="110" height="30" as="geometry" />
        </mxCell>
        <mxCell id="GCJxB1RPTs2br_yxcwbv-46" value="" style="shape=partialRectangle;collapsible=0;dropTarget=0;pointerEvents=0;fillColor=#dae8fc;top=0;left=0;bottom=0;right=0;points=[[0,0.5],[1,0.5]];portConstraint=eastwest;strokeColor=#6c8ebf;" parent="GCJxB1RPTs2br_yxcwbv-36" vertex="1">
          <mxGeometry y="115" width="140" height="30" as="geometry" />
        </mxCell>
        <mxCell id="GCJxB1RPTs2br_yxcwbv-47" value="" style="shape=partialRectangle;connectable=0;fillColor=#dae8fc;top=0;left=0;bottom=0;right=0;editable=1;overflow=hidden;strokeColor=#6c8ebf;" parent="GCJxB1RPTs2br_yxcwbv-46" vertex="1">
          <mxGeometry width="30" height="30" as="geometry" />
        </mxCell>
        <mxCell id="GCJxB1RPTs2br_yxcwbv-48" value="desc" style="shape=partialRectangle;connectable=0;fillColor=#dae8fc;top=0;left=0;bottom=0;right=0;align=left;spacingLeft=6;overflow=hidden;strokeColor=#6c8ebf;" parent="GCJxB1RPTs2br_yxcwbv-46" vertex="1">
          <mxGeometry x="30" width="110" height="30" as="geometry" />
        </mxCell>
        <mxCell id="GCJxB1RPTs2br_yxcwbv-50" value="Role" style="shape=table;startSize=30;container=1;collapsible=1;childLayout=tableLayout;fixedRows=1;rowLines=0;fontStyle=1;align=center;resizeLast=1;fillColor=#dae8fc;strokeColor=#6c8ebf;" parent="1" vertex="1">
          <mxGeometry x="60" y="400" width="140" height="150" as="geometry" />
        </mxCell>
        <mxCell id="GCJxB1RPTs2br_yxcwbv-51" value="" style="shape=partialRectangle;collapsible=0;dropTarget=0;pointerEvents=0;fillColor=#dae8fc;top=0;left=0;bottom=1;right=0;points=[[0,0.5],[1,0.5]];portConstraint=eastwest;strokeColor=#6c8ebf;" parent="GCJxB1RPTs2br_yxcwbv-50" vertex="1">
          <mxGeometry y="30" width="140" height="30" as="geometry" />
        </mxCell>
        <mxCell id="GCJxB1RPTs2br_yxcwbv-52" value="PK" style="shape=partialRectangle;connectable=0;fillColor=#dae8fc;top=0;left=0;bottom=0;right=0;fontStyle=1;overflow=hidden;strokeColor=#6c8ebf;" parent="GCJxB1RPTs2br_yxcwbv-51" vertex="1">
          <mxGeometry width="30" height="30" as="geometry" />
        </mxCell>
        <mxCell id="GCJxB1RPTs2br_yxcwbv-53" value="Role_id" style="shape=partialRectangle;connectable=0;fillColor=#dae8fc;top=0;left=0;bottom=0;right=0;align=left;spacingLeft=6;fontStyle=5;overflow=hidden;strokeColor=#6c8ebf;" parent="GCJxB1RPTs2br_yxcwbv-51" vertex="1">
          <mxGeometry x="30" width="110" height="30" as="geometry" />
        </mxCell>
        <mxCell id="GCJxB1RPTs2br_yxcwbv-54" value="" style="shape=partialRectangle;collapsible=0;dropTarget=0;pointerEvents=0;fillColor=#dae8fc;top=0;left=0;bottom=0;right=0;points=[[0,0.5],[1,0.5]];portConstraint=eastwest;strokeColor=#6c8ebf;" parent="GCJxB1RPTs2br_yxcwbv-50" vertex="1">
          <mxGeometry y="60" width="140" height="30" as="geometry" />
        </mxCell>
        <mxCell id="GCJxB1RPTs2br_yxcwbv-55" value="" style="shape=partialRectangle;connectable=0;fillColor=#dae8fc;top=0;left=0;bottom=0;right=0;editable=1;overflow=hidden;strokeColor=#6c8ebf;" parent="GCJxB1RPTs2br_yxcwbv-54" vertex="1">
          <mxGeometry width="30" height="30" as="geometry" />
        </mxCell>
        <mxCell id="GCJxB1RPTs2br_yxcwbv-56" value="Role_name" style="shape=partialRectangle;connectable=0;fillColor=#dae8fc;top=0;left=0;bottom=0;right=0;align=left;spacingLeft=6;overflow=hidden;strokeColor=#6c8ebf;" parent="GCJxB1RPTs2br_yxcwbv-54" vertex="1">
          <mxGeometry x="30" width="110" height="30" as="geometry" />
        </mxCell>
        <mxCell id="GCJxB1RPTs2br_yxcwbv-57" value="" style="shape=partialRectangle;collapsible=0;dropTarget=0;pointerEvents=0;fillColor=#dae8fc;top=0;left=0;bottom=0;right=0;points=[[0,0.5],[1,0.5]];portConstraint=eastwest;strokeColor=#6c8ebf;" parent="GCJxB1RPTs2br_yxcwbv-50" vertex="1">
          <mxGeometry y="90" width="140" height="30" as="geometry" />
        </mxCell>
        <mxCell id="GCJxB1RPTs2br_yxcwbv-58" value="" style="shape=partialRectangle;connectable=0;fillColor=#dae8fc;top=0;left=0;bottom=0;right=0;editable=1;overflow=hidden;strokeColor=#6c8ebf;" parent="GCJxB1RPTs2br_yxcwbv-57" vertex="1">
          <mxGeometry width="30" height="30" as="geometry" />
        </mxCell>
        <mxCell id="GCJxB1RPTs2br_yxcwbv-59" value="Role_desc" style="shape=partialRectangle;connectable=0;fillColor=#dae8fc;top=0;left=0;bottom=0;right=0;align=left;spacingLeft=6;overflow=hidden;strokeColor=#6c8ebf;" parent="GCJxB1RPTs2br_yxcwbv-57" vertex="1">
          <mxGeometry x="30" width="110" height="30" as="geometry" />
        </mxCell>
        <mxCell id="GCJxB1RPTs2br_yxcwbv-60" value="" style="shape=partialRectangle;collapsible=0;dropTarget=0;pointerEvents=0;fillColor=#dae8fc;top=0;left=0;bottom=0;right=0;points=[[0,0.5],[1,0.5]];portConstraint=eastwest;strokeColor=#6c8ebf;" parent="GCJxB1RPTs2br_yxcwbv-50" vertex="1">
          <mxGeometry y="120" width="140" height="30" as="geometry" />
        </mxCell>
        <mxCell id="GCJxB1RPTs2br_yxcwbv-61" value="" style="shape=partialRectangle;connectable=0;fillColor=#dae8fc;top=0;left=0;bottom=0;right=0;editable=1;overflow=hidden;strokeColor=#6c8ebf;" parent="GCJxB1RPTs2br_yxcwbv-60" vertex="1">
          <mxGeometry width="30" height="30" as="geometry" />
        </mxCell>
        <mxCell id="GCJxB1RPTs2br_yxcwbv-62" value="update_time" style="shape=partialRectangle;connectable=0;fillColor=#dae8fc;top=0;left=0;bottom=0;right=0;align=left;spacingLeft=6;overflow=hidden;strokeColor=#6c8ebf;" parent="GCJxB1RPTs2br_yxcwbv-60" vertex="1">
          <mxGeometry x="30" width="110" height="30" as="geometry" />
        </mxCell>
        <mxCell id="GCJxB1RPTs2br_yxcwbv-63" style="edgeStyle=orthogonalEdgeStyle;rounded=0;orthogonalLoop=1;jettySize=auto;html=1;exitX=1;exitY=0.5;exitDx=0;exitDy=0;entryX=0;entryY=0.5;entryDx=0;entryDy=0;fillColor=#dae8fc;strokeColor=#6c8ebf;" parent="1" source="GCJxB1RPTs2br_yxcwbv-24" target="GCJxB1RPTs2br_yxcwbv-40" edge="1">
          <mxGeometry relative="1" as="geometry" />
        </mxCell>
        <mxCell id="GCJxB1RPTs2br_yxcwbv-64" style="edgeStyle=orthogonalEdgeStyle;rounded=0;orthogonalLoop=1;jettySize=auto;html=1;exitX=1;exitY=0.5;exitDx=0;exitDy=0;entryX=0;entryY=0.5;entryDx=0;entryDy=0;fillColor=#dae8fc;strokeColor=#6c8ebf;" parent="1" source="GCJxB1RPTs2br_yxcwbv-51" target="GCJxB1RPTs2br_yxcwbv-43" edge="1">
          <mxGeometry relative="1" as="geometry" />
        </mxCell>
        <mxCell id="GCJxB1RPTs2br_yxcwbv-73" style="edgeStyle=orthogonalEdgeStyle;rounded=0;orthogonalLoop=1;jettySize=auto;html=1;exitX=0.5;exitY=1;exitDx=0;exitDy=0;entryX=0.5;entryY=0;entryDx=0;entryDy=0;" parent="1" source="GCJxB1RPTs2br_yxcwbv-70" target="GCJxB1RPTs2br_yxcwbv-19" edge="1">
          <mxGeometry relative="1" as="geometry" />
        </mxCell>
        <mxCell id="GCJxB1RPTs2br_yxcwbv-70" value="WEB/Phone" style="rounded=1;whiteSpace=wrap;html=1;fillColor=#f8cecc;strokeColor=#b85450;" parent="1" vertex="1">
          <mxGeometry x="310" y="10" width="170" height="50" as="geometry" />
        </mxCell>
        <mxCell id="GCJxB1RPTs2br_yxcwbv-76" value="Passenger" style="shape=table;startSize=30;container=1;collapsible=1;childLayout=tableLayout;fixedRows=1;rowLines=0;fontStyle=1;align=center;resizeLast=1;fillColor=#d5e8d4;strokeColor=#82b366;" parent="1" vertex="1">
          <mxGeometry x="440" y="225" width="110" height="150" as="geometry" />
        </mxCell>
        <mxCell id="GCJxB1RPTs2br_yxcwbv-77" value="" style="shape=partialRectangle;collapsible=0;dropTarget=0;pointerEvents=0;fillColor=#d5e8d4;top=0;left=0;bottom=1;right=0;points=[[0,0.5],[1,0.5]];portConstraint=eastwest;strokeColor=#82b366;" parent="GCJxB1RPTs2br_yxcwbv-76" vertex="1">
          <mxGeometry y="30" width="110" height="30" as="geometry" />
        </mxCell>
        <mxCell id="GCJxB1RPTs2br_yxcwbv-78" value="PK" style="shape=partialRectangle;connectable=0;fillColor=#d5e8d4;top=0;left=0;bottom=0;right=0;fontStyle=1;overflow=hidden;strokeColor=#82b366;" parent="GCJxB1RPTs2br_yxcwbv-77" vertex="1">
          <mxGeometry width="30" height="30" as="geometry" />
        </mxCell>
        <mxCell id="GCJxB1RPTs2br_yxcwbv-79" value="Psger_id" style="shape=partialRectangle;connectable=0;fillColor=#d5e8d4;top=0;left=0;bottom=0;right=0;align=left;spacingLeft=6;fontStyle=5;overflow=hidden;strokeColor=#82b366;" parent="GCJxB1RPTs2br_yxcwbv-77" vertex="1">
          <mxGeometry x="30" width="80" height="30" as="geometry" />
        </mxCell>
        <mxCell id="GCJxB1RPTs2br_yxcwbv-80" value="" style="shape=partialRectangle;collapsible=0;dropTarget=0;pointerEvents=0;fillColor=#d5e8d4;top=0;left=0;bottom=0;right=0;points=[[0,0.5],[1,0.5]];portConstraint=eastwest;strokeColor=#82b366;" parent="GCJxB1RPTs2br_yxcwbv-76" vertex="1">
          <mxGeometry y="60" width="110" height="30" as="geometry" />
        </mxCell>
        <mxCell id="GCJxB1RPTs2br_yxcwbv-81" value="" style="shape=partialRectangle;connectable=0;fillColor=#d5e8d4;top=0;left=0;bottom=0;right=0;editable=1;overflow=hidden;strokeColor=#82b366;" parent="GCJxB1RPTs2br_yxcwbv-80" vertex="1">
          <mxGeometry width="30" height="30" as="geometry" />
        </mxCell>
        <mxCell id="GCJxB1RPTs2br_yxcwbv-82" value="Age" style="shape=partialRectangle;connectable=0;fillColor=#d5e8d4;top=0;left=0;bottom=0;right=0;align=left;spacingLeft=6;overflow=hidden;strokeColor=#82b366;" parent="GCJxB1RPTs2br_yxcwbv-80" vertex="1">
          <mxGeometry x="30" width="80" height="30" as="geometry" />
        </mxCell>
        <mxCell id="GCJxB1RPTs2br_yxcwbv-83" value="" style="shape=partialRectangle;collapsible=0;dropTarget=0;pointerEvents=0;fillColor=#d5e8d4;top=0;left=0;bottom=0;right=0;points=[[0,0.5],[1,0.5]];portConstraint=eastwest;strokeColor=#82b366;" parent="GCJxB1RPTs2br_yxcwbv-76" vertex="1">
          <mxGeometry y="90" width="110" height="30" as="geometry" />
        </mxCell>
        <mxCell id="GCJxB1RPTs2br_yxcwbv-84" value="" style="shape=partialRectangle;connectable=0;fillColor=#d5e8d4;top=0;left=0;bottom=0;right=0;editable=1;overflow=hidden;strokeColor=#82b366;" parent="GCJxB1RPTs2br_yxcwbv-83" vertex="1">
          <mxGeometry width="30" height="30" as="geometry" />
        </mxCell>
        <mxCell id="GCJxB1RPTs2br_yxcwbv-85" value="Note" style="shape=partialRectangle;connectable=0;fillColor=#d5e8d4;top=0;left=0;bottom=0;right=0;align=left;spacingLeft=6;overflow=hidden;strokeColor=#82b366;" parent="GCJxB1RPTs2br_yxcwbv-83" vertex="1">
          <mxGeometry x="30" width="80" height="30" as="geometry" />
        </mxCell>
        <mxCell id="GCJxB1RPTs2br_yxcwbv-86" value="" style="shape=partialRectangle;collapsible=0;dropTarget=0;pointerEvents=0;fillColor=#d5e8d4;top=0;left=0;bottom=0;right=0;points=[[0,0.5],[1,0.5]];portConstraint=eastwest;strokeColor=#82b366;" parent="GCJxB1RPTs2br_yxcwbv-76" vertex="1">
          <mxGeometry y="120" width="110" height="30" as="geometry" />
        </mxCell>
        <mxCell id="GCJxB1RPTs2br_yxcwbv-87" value="" style="shape=partialRectangle;connectable=0;fillColor=#d5e8d4;top=0;left=0;bottom=0;right=0;editable=1;overflow=hidden;strokeColor=#82b366;" parent="GCJxB1RPTs2br_yxcwbv-86" vertex="1">
          <mxGeometry width="30" height="30" as="geometry" />
        </mxCell>
        <mxCell id="GCJxB1RPTs2br_yxcwbv-88" value="Create_time" style="shape=partialRectangle;connectable=0;fillColor=#d5e8d4;top=0;left=0;bottom=0;right=0;align=left;spacingLeft=6;overflow=hidden;strokeColor=#82b366;" parent="GCJxB1RPTs2br_yxcwbv-86" vertex="1">
          <mxGeometry x="30" width="80" height="30" as="geometry" />
        </mxCell>
        <mxCell id="GCJxB1RPTs2br_yxcwbv-89" value="Driver" style="shape=table;startSize=30;container=1;collapsible=1;childLayout=tableLayout;fixedRows=1;rowLines=0;fontStyle=1;align=center;resizeLast=1;fillColor=#e1d5e7;strokeColor=#9673a6;" parent="1" vertex="1">
          <mxGeometry x="685" y="244" width="110" height="150" as="geometry" />
        </mxCell>
        <mxCell id="GCJxB1RPTs2br_yxcwbv-90" value="" style="shape=partialRectangle;collapsible=0;dropTarget=0;pointerEvents=0;fillColor=#e1d5e7;top=0;left=0;bottom=1;right=0;points=[[0,0.5],[1,0.5]];portConstraint=eastwest;strokeColor=#9673a6;" parent="GCJxB1RPTs2br_yxcwbv-89" vertex="1">
          <mxGeometry y="30" width="110" height="30" as="geometry" />
        </mxCell>
        <mxCell id="GCJxB1RPTs2br_yxcwbv-91" value="PK" style="shape=partialRectangle;connectable=0;fillColor=#e1d5e7;top=0;left=0;bottom=0;right=0;fontStyle=1;overflow=hidden;strokeColor=#9673a6;" parent="GCJxB1RPTs2br_yxcwbv-90" vertex="1">
          <mxGeometry width="30" height="30" as="geometry" />
        </mxCell>
        <mxCell id="GCJxB1RPTs2br_yxcwbv-92" value="Driver_id" style="shape=partialRectangle;connectable=0;fillColor=#e1d5e7;top=0;left=0;bottom=0;right=0;align=left;spacingLeft=6;fontStyle=5;overflow=hidden;strokeColor=#9673a6;" parent="GCJxB1RPTs2br_yxcwbv-90" vertex="1">
          <mxGeometry x="30" width="80" height="30" as="geometry" />
        </mxCell>
        <mxCell id="GCJxB1RPTs2br_yxcwbv-93" value="" style="shape=partialRectangle;collapsible=0;dropTarget=0;pointerEvents=0;fillColor=#e1d5e7;top=0;left=0;bottom=0;right=0;points=[[0,0.5],[1,0.5]];portConstraint=eastwest;strokeColor=#9673a6;" parent="GCJxB1RPTs2br_yxcwbv-89" vertex="1">
          <mxGeometry y="60" width="110" height="30" as="geometry" />
        </mxCell>
        <mxCell id="GCJxB1RPTs2br_yxcwbv-94" value="" style="shape=partialRectangle;connectable=0;fillColor=#e1d5e7;top=0;left=0;bottom=0;right=0;editable=1;overflow=hidden;strokeColor=#9673a6;" parent="GCJxB1RPTs2br_yxcwbv-93" vertex="1">
          <mxGeometry width="30" height="30" as="geometry" />
        </mxCell>
        <mxCell id="GCJxB1RPTs2br_yxcwbv-95" value="Age" style="shape=partialRectangle;connectable=0;fillColor=#e1d5e7;top=0;left=0;bottom=0;right=0;align=left;spacingLeft=6;overflow=hidden;strokeColor=#9673a6;" parent="GCJxB1RPTs2br_yxcwbv-93" vertex="1">
          <mxGeometry x="30" width="80" height="30" as="geometry" />
        </mxCell>
        <mxCell id="GCJxB1RPTs2br_yxcwbv-96" value="" style="shape=partialRectangle;collapsible=0;dropTarget=0;pointerEvents=0;fillColor=#e1d5e7;top=0;left=0;bottom=0;right=0;points=[[0,0.5],[1,0.5]];portConstraint=eastwest;strokeColor=#9673a6;" parent="GCJxB1RPTs2br_yxcwbv-89" vertex="1">
          <mxGeometry y="90" width="110" height="30" as="geometry" />
        </mxCell>
        <mxCell id="GCJxB1RPTs2br_yxcwbv-97" value="" style="shape=partialRectangle;connectable=0;fillColor=#e1d5e7;top=0;left=0;bottom=0;right=0;editable=1;overflow=hidden;strokeColor=#9673a6;" parent="GCJxB1RPTs2br_yxcwbv-96" vertex="1">
          <mxGeometry width="30" height="30" as="geometry" />
        </mxCell>
        <mxCell id="GCJxB1RPTs2br_yxcwbv-98" value="Note" style="shape=partialRectangle;connectable=0;fillColor=#e1d5e7;top=0;left=0;bottom=0;right=0;align=left;spacingLeft=6;overflow=hidden;strokeColor=#9673a6;" parent="GCJxB1RPTs2br_yxcwbv-96" vertex="1">
          <mxGeometry x="30" width="80" height="30" as="geometry" />
        </mxCell>
        <mxCell id="GCJxB1RPTs2br_yxcwbv-99" value="" style="shape=partialRectangle;collapsible=0;dropTarget=0;pointerEvents=0;fillColor=#e1d5e7;top=0;left=0;bottom=0;right=0;points=[[0,0.5],[1,0.5]];portConstraint=eastwest;strokeColor=#9673a6;" parent="GCJxB1RPTs2br_yxcwbv-89" vertex="1">
          <mxGeometry y="120" width="110" height="30" as="geometry" />
        </mxCell>
        <mxCell id="GCJxB1RPTs2br_yxcwbv-100" value="" style="shape=partialRectangle;connectable=0;fillColor=#e1d5e7;top=0;left=0;bottom=0;right=0;editable=1;overflow=hidden;strokeColor=#9673a6;" parent="GCJxB1RPTs2br_yxcwbv-99" vertex="1">
          <mxGeometry width="30" height="30" as="geometry" />
        </mxCell>
        <mxCell id="GCJxB1RPTs2br_yxcwbv-101" value="Create_time" style="shape=partialRectangle;connectable=0;fillColor=#e1d5e7;top=0;left=0;bottom=0;right=0;align=left;spacingLeft=6;overflow=hidden;strokeColor=#9673a6;" parent="GCJxB1RPTs2br_yxcwbv-99" vertex="1">
          <mxGeometry x="30" width="80" height="30" as="geometry" />
        </mxCell>
        <mxCell id="GCJxB1RPTs2br_yxcwbv-113" style="edgeStyle=orthogonalEdgeStyle;rounded=0;orthogonalLoop=1;jettySize=auto;html=1;exitX=0.5;exitY=1;exitDx=0;exitDy=0;entryX=0.5;entryY=0;entryDx=0;entryDy=0;" parent="1" source="GCJxB1RPTs2br_yxcwbv-104" target="GCJxB1RPTs2br_yxcwbv-76" edge="1">
          <mxGeometry relative="1" as="geometry" />
        </mxCell>
        <mxCell id="GCJxB1RPTs2br_yxcwbv-104" value="Passenger Management" style="rounded=0;whiteSpace=wrap;html=1;fillColor=#d5e8d4;strokeColor=#82b366;" parent="1" vertex="1">
          <mxGeometry x="440" y="145" width="120" height="60" as="geometry" />
        </mxCell>
        <mxCell id="GCJxB1RPTs2br_yxcwbv-114" style="edgeStyle=orthogonalEdgeStyle;rounded=0;orthogonalLoop=1;jettySize=auto;html=1;exitX=0.5;exitY=1;exitDx=0;exitDy=0;entryX=0.5;entryY=0;entryDx=0;entryDy=0;" parent="1" source="GCJxB1RPTs2br_yxcwbv-105" target="GCJxB1RPTs2br_yxcwbv-89" edge="1">
          <mxGeometry relative="1" as="geometry" />
        </mxCell>
        <mxCell id="GCJxB1RPTs2br_yxcwbv-105" value="Driver Management" style="rounded=0;whiteSpace=wrap;html=1;fillColor=#e1d5e7;strokeColor=#9673a6;" parent="1" vertex="1">
          <mxGeometry x="680" y="160" width="120" height="60" as="geometry" />
        </mxCell>
        <mxCell id="GCJxB1RPTs2br_yxcwbv-109" value="" style="shape=flexArrow;endArrow=classic;html=1;exitX=0.5;exitY=1;exitDx=0;exitDy=0;entryX=0.676;entryY=0;entryDx=0;entryDy=0;entryPerimeter=0;" parent="1" source="GCJxB1RPTs2br_yxcwbv-19" target="GCJxB1RPTs2br_yxcwbv-23" edge="1">
          <mxGeometry width="50" height="50" relative="1" as="geometry">
            <mxPoint x="340" y="300" as="sourcePoint" />
            <mxPoint x="225" y="220" as="targetPoint" />
          </mxGeometry>
        </mxCell>
        <mxCell id="GCJxB1RPTs2br_yxcwbv-161" style="edgeStyle=orthogonalEdgeStyle;rounded=0;orthogonalLoop=1;jettySize=auto;html=1;exitX=1;exitY=0.75;exitDx=0;exitDy=0;entryX=0;entryY=0.5;entryDx=0;entryDy=0;" parent="1" source="GCJxB1RPTs2br_yxcwbv-115" target="GCJxB1RPTs2br_yxcwbv-142" edge="1">
          <mxGeometry relative="1" as="geometry">
            <Array as="points">
              <mxPoint x="630" y="560" />
              <mxPoint x="630" y="605" />
              <mxPoint x="780" y="605" />
              <mxPoint x="780" y="480" />
            </Array>
          </mxGeometry>
        </mxCell>
        <object label="Device" id="GCJxB1RPTs2br_yxcwbv-115">
          <mxCell style="shape=table;startSize=30;container=1;collapsible=1;childLayout=tableLayout;fixedRows=1;rowLines=0;fontStyle=1;align=center;resizeLast=1;fillColor=#e1d5e7;strokeColor=#9673a6;" parent="1" vertex="1">
            <mxGeometry x="470" y="420" width="145" height="180" as="geometry" />
          </mxCell>
        </object>
        <mxCell id="GCJxB1RPTs2br_yxcwbv-116" value="" style="shape=partialRectangle;collapsible=0;dropTarget=0;pointerEvents=0;fillColor=#e1d5e7;top=0;left=0;bottom=1;right=0;points=[[0,0.5],[1,0.5]];portConstraint=eastwest;strokeColor=#9673a6;" parent="GCJxB1RPTs2br_yxcwbv-115" vertex="1">
          <mxGeometry y="30" width="145" height="30" as="geometry" />
        </mxCell>
        <mxCell id="GCJxB1RPTs2br_yxcwbv-117" value="PK" style="shape=partialRectangle;connectable=0;fillColor=#e1d5e7;top=0;left=0;bottom=0;right=0;fontStyle=1;overflow=hidden;strokeColor=#9673a6;" parent="GCJxB1RPTs2br_yxcwbv-116" vertex="1">
          <mxGeometry width="30" height="30" as="geometry" />
        </mxCell>
        <mxCell id="GCJxB1RPTs2br_yxcwbv-118" value="Driver_id" style="shape=partialRectangle;connectable=0;fillColor=#e1d5e7;top=0;left=0;bottom=0;right=0;align=left;spacingLeft=6;fontStyle=5;overflow=hidden;strokeColor=#9673a6;" parent="GCJxB1RPTs2br_yxcwbv-116" vertex="1">
          <mxGeometry x="30" width="115" height="30" as="geometry" />
        </mxCell>
        <mxCell id="GCJxB1RPTs2br_yxcwbv-119" value="" style="shape=partialRectangle;collapsible=0;dropTarget=0;pointerEvents=0;fillColor=#e1d5e7;top=0;left=0;bottom=0;right=0;points=[[0,0.5],[1,0.5]];portConstraint=eastwest;strokeColor=#9673a6;" parent="GCJxB1RPTs2br_yxcwbv-115" vertex="1">
          <mxGeometry y="60" width="145" height="30" as="geometry" />
        </mxCell>
        <mxCell id="GCJxB1RPTs2br_yxcwbv-120" value="" style="shape=partialRectangle;connectable=0;fillColor=#e1d5e7;top=0;left=0;bottom=0;right=0;editable=1;overflow=hidden;strokeColor=#9673a6;" parent="GCJxB1RPTs2br_yxcwbv-119" vertex="1">
          <mxGeometry width="30" height="30" as="geometry" />
        </mxCell>
        <mxCell id="GCJxB1RPTs2br_yxcwbv-121" value="Brand_id" style="shape=partialRectangle;connectable=0;fillColor=#e1d5e7;top=0;left=0;bottom=0;right=0;align=left;spacingLeft=6;overflow=hidden;strokeColor=#9673a6;" parent="GCJxB1RPTs2br_yxcwbv-119" vertex="1">
          <mxGeometry x="30" width="115" height="30" as="geometry" />
        </mxCell>
        <mxCell id="GCJxB1RPTs2br_yxcwbv-122" value="" style="shape=partialRectangle;collapsible=0;dropTarget=0;pointerEvents=0;fillColor=#e1d5e7;top=0;left=0;bottom=0;right=0;points=[[0,0.5],[1,0.5]];portConstraint=eastwest;strokeColor=#9673a6;" parent="GCJxB1RPTs2br_yxcwbv-115" vertex="1">
          <mxGeometry y="90" width="145" height="30" as="geometry" />
        </mxCell>
        <mxCell id="GCJxB1RPTs2br_yxcwbv-123" value="" style="shape=partialRectangle;connectable=0;fillColor=#e1d5e7;top=0;left=0;bottom=0;right=0;editable=1;overflow=hidden;strokeColor=#9673a6;" parent="GCJxB1RPTs2br_yxcwbv-122" vertex="1">
          <mxGeometry width="30" height="30" as="geometry" />
        </mxCell>
        <mxCell id="GCJxB1RPTs2br_yxcwbv-124" value="Type_id" style="shape=partialRectangle;connectable=0;fillColor=#e1d5e7;top=0;left=0;bottom=0;right=0;align=left;spacingLeft=6;overflow=hidden;strokeColor=#9673a6;" parent="GCJxB1RPTs2br_yxcwbv-122" vertex="1">
          <mxGeometry x="30" width="115" height="30" as="geometry" />
        </mxCell>
        <mxCell id="GCJxB1RPTs2br_yxcwbv-125" value="" style="shape=partialRectangle;collapsible=0;dropTarget=0;pointerEvents=0;fillColor=#e1d5e7;top=0;left=0;bottom=0;right=0;points=[[0,0.5],[1,0.5]];portConstraint=eastwest;strokeColor=#9673a6;" parent="GCJxB1RPTs2br_yxcwbv-115" vertex="1">
          <mxGeometry y="120" width="145" height="30" as="geometry" />
        </mxCell>
        <mxCell id="GCJxB1RPTs2br_yxcwbv-126" value="" style="shape=partialRectangle;connectable=0;fillColor=#e1d5e7;top=0;left=0;bottom=0;right=0;editable=1;overflow=hidden;strokeColor=#9673a6;" parent="GCJxB1RPTs2br_yxcwbv-125" vertex="1">
          <mxGeometry width="30" height="30" as="geometry" />
        </mxCell>
        <mxCell id="GCJxB1RPTs2br_yxcwbv-127" value="Insurance_type_id" style="shape=partialRectangle;connectable=0;fillColor=#e1d5e7;top=0;left=0;bottom=0;right=0;align=left;spacingLeft=6;overflow=hidden;strokeColor=#9673a6;" parent="GCJxB1RPTs2br_yxcwbv-125" vertex="1">
          <mxGeometry x="30" width="115" height="30" as="geometry" />
        </mxCell>
        <mxCell id="GCJxB1RPTs2br_yxcwbv-156" value="" style="shape=partialRectangle;collapsible=0;dropTarget=0;pointerEvents=0;fillColor=#e1d5e7;top=0;left=0;bottom=0;right=0;points=[[0,0.5],[1,0.5]];portConstraint=eastwest;strokeColor=#9673a6;" parent="GCJxB1RPTs2br_yxcwbv-115" vertex="1">
          <mxGeometry y="150" width="145" height="30" as="geometry" />
        </mxCell>
        <mxCell id="GCJxB1RPTs2br_yxcwbv-157" value="" style="shape=partialRectangle;connectable=0;fillColor=#e1d5e7;top=0;left=0;bottom=0;right=0;editable=1;overflow=hidden;strokeColor=#9673a6;" parent="GCJxB1RPTs2br_yxcwbv-156" vertex="1">
          <mxGeometry width="30" height="30" as="geometry" />
        </mxCell>
        <mxCell id="GCJxB1RPTs2br_yxcwbv-158" value=" Device_owner_id" style="shape=partialRectangle;connectable=0;fillColor=#e1d5e7;top=0;left=0;bottom=0;right=0;align=left;spacingLeft=6;overflow=hidden;strokeColor=#9673a6;" parent="GCJxB1RPTs2br_yxcwbv-156" vertex="1">
          <mxGeometry x="30" width="115" height="30" as="geometry" />
        </mxCell>
        <mxCell id="GCJxB1RPTs2br_yxcwbv-160" style="edgeStyle=orthogonalEdgeStyle;rounded=0;orthogonalLoop=1;jettySize=auto;html=1;exitX=0;exitY=0.25;exitDx=0;exitDy=0;entryX=1;entryY=0.5;entryDx=0;entryDy=0;" parent="1" source="GCJxB1RPTs2br_yxcwbv-128" target="GCJxB1RPTs2br_yxcwbv-119" edge="1">
          <mxGeometry relative="1" as="geometry" />
        </mxCell>
        <mxCell id="GCJxB1RPTs2br_yxcwbv-128" value="Device_brand" style="shape=table;startSize=30;container=1;collapsible=1;childLayout=tableLayout;fixedRows=1;rowLines=0;fontStyle=1;align=center;resizeLast=1;fillColor=#e1d5e7;strokeColor=#9673a6;" parent="1" vertex="1">
          <mxGeometry x="660" y="435" width="110" height="150" as="geometry" />
        </mxCell>
        <mxCell id="GCJxB1RPTs2br_yxcwbv-129" value="" style="shape=partialRectangle;collapsible=0;dropTarget=0;pointerEvents=0;fillColor=#e1d5e7;top=0;left=0;bottom=1;right=0;points=[[0,0.5],[1,0.5]];portConstraint=eastwest;strokeColor=#9673a6;" parent="GCJxB1RPTs2br_yxcwbv-128" vertex="1">
          <mxGeometry y="30" width="110" height="30" as="geometry" />
        </mxCell>
        <mxCell id="GCJxB1RPTs2br_yxcwbv-130" value="PK" style="shape=partialRectangle;connectable=0;fillColor=#e1d5e7;top=0;left=0;bottom=0;right=0;fontStyle=1;overflow=hidden;strokeColor=#9673a6;" parent="GCJxB1RPTs2br_yxcwbv-129" vertex="1">
          <mxGeometry width="30" height="30" as="geometry" />
        </mxCell>
        <mxCell id="GCJxB1RPTs2br_yxcwbv-131" value="Brand_id" style="shape=partialRectangle;connectable=0;fillColor=#e1d5e7;top=0;left=0;bottom=0;right=0;align=left;spacingLeft=6;fontStyle=5;overflow=hidden;strokeColor=#9673a6;" parent="GCJxB1RPTs2br_yxcwbv-129" vertex="1">
          <mxGeometry x="30" width="80" height="30" as="geometry" />
        </mxCell>
        <mxCell id="GCJxB1RPTs2br_yxcwbv-132" value="" style="shape=partialRectangle;collapsible=0;dropTarget=0;pointerEvents=0;fillColor=#e1d5e7;top=0;left=0;bottom=0;right=0;points=[[0,0.5],[1,0.5]];portConstraint=eastwest;strokeColor=#9673a6;" parent="GCJxB1RPTs2br_yxcwbv-128" vertex="1">
          <mxGeometry y="60" width="110" height="30" as="geometry" />
        </mxCell>
        <mxCell id="GCJxB1RPTs2br_yxcwbv-133" value="" style="shape=partialRectangle;connectable=0;fillColor=#e1d5e7;top=0;left=0;bottom=0;right=0;editable=1;overflow=hidden;strokeColor=#9673a6;" parent="GCJxB1RPTs2br_yxcwbv-132" vertex="1">
          <mxGeometry width="30" height="30" as="geometry" />
        </mxCell>
        <mxCell id="GCJxB1RPTs2br_yxcwbv-134" value="Age" style="shape=partialRectangle;connectable=0;fillColor=#e1d5e7;top=0;left=0;bottom=0;right=0;align=left;spacingLeft=6;overflow=hidden;strokeColor=#9673a6;" parent="GCJxB1RPTs2br_yxcwbv-132" vertex="1">
          <mxGeometry x="30" width="80" height="30" as="geometry" />
        </mxCell>
        <mxCell id="GCJxB1RPTs2br_yxcwbv-135" value="" style="shape=partialRectangle;collapsible=0;dropTarget=0;pointerEvents=0;fillColor=#e1d5e7;top=0;left=0;bottom=0;right=0;points=[[0,0.5],[1,0.5]];portConstraint=eastwest;strokeColor=#9673a6;" parent="GCJxB1RPTs2br_yxcwbv-128" vertex="1">
          <mxGeometry y="90" width="110" height="30" as="geometry" />
        </mxCell>
        <mxCell id="GCJxB1RPTs2br_yxcwbv-136" value="" style="shape=partialRectangle;connectable=0;fillColor=#e1d5e7;top=0;left=0;bottom=0;right=0;editable=1;overflow=hidden;strokeColor=#9673a6;" parent="GCJxB1RPTs2br_yxcwbv-135" vertex="1">
          <mxGeometry width="30" height="30" as="geometry" />
        </mxCell>
        <mxCell id="GCJxB1RPTs2br_yxcwbv-137" value="Note" style="shape=partialRectangle;connectable=0;fillColor=#e1d5e7;top=0;left=0;bottom=0;right=0;align=left;spacingLeft=6;overflow=hidden;strokeColor=#9673a6;" parent="GCJxB1RPTs2br_yxcwbv-135" vertex="1">
          <mxGeometry x="30" width="80" height="30" as="geometry" />
        </mxCell>
        <mxCell id="GCJxB1RPTs2br_yxcwbv-138" value="" style="shape=partialRectangle;collapsible=0;dropTarget=0;pointerEvents=0;fillColor=#e1d5e7;top=0;left=0;bottom=0;right=0;points=[[0,0.5],[1,0.5]];portConstraint=eastwest;strokeColor=#9673a6;" parent="GCJxB1RPTs2br_yxcwbv-128" vertex="1">
          <mxGeometry y="120" width="110" height="30" as="geometry" />
        </mxCell>
        <mxCell id="GCJxB1RPTs2br_yxcwbv-139" value="" style="shape=partialRectangle;connectable=0;fillColor=#e1d5e7;top=0;left=0;bottom=0;right=0;editable=1;overflow=hidden;strokeColor=#9673a6;" parent="GCJxB1RPTs2br_yxcwbv-138" vertex="1">
          <mxGeometry width="30" height="30" as="geometry" />
        </mxCell>
        <mxCell id="GCJxB1RPTs2br_yxcwbv-140" value="Create_time" style="shape=partialRectangle;connectable=0;fillColor=#e1d5e7;top=0;left=0;bottom=0;right=0;align=left;spacingLeft=6;overflow=hidden;strokeColor=#9673a6;" parent="GCJxB1RPTs2br_yxcwbv-138" vertex="1">
          <mxGeometry x="30" width="80" height="30" as="geometry" />
        </mxCell>
        <mxCell id="GCJxB1RPTs2br_yxcwbv-176" style="edgeStyle=orthogonalEdgeStyle;rounded=0;orthogonalLoop=1;jettySize=auto;html=1;exitX=1;exitY=0.5;exitDx=0;exitDy=0;entryX=1;entryY=0.5;entryDx=0;entryDy=0;" parent="1" source="GCJxB1RPTs2br_yxcwbv-141" target="GCJxB1RPTs2br_yxcwbv-164" edge="1">
          <mxGeometry relative="1" as="geometry" />
        </mxCell>
        <mxCell id="GCJxB1RPTs2br_yxcwbv-141" value="Insurance_type" style="shape=table;startSize=30;container=1;collapsible=1;childLayout=tableLayout;fixedRows=1;rowLines=0;fontStyle=1;align=center;resizeLast=1;fillColor=#e1d5e7;strokeColor=#9673a6;" parent="1" vertex="1">
          <mxGeometry x="800" y="435" width="110" height="150" as="geometry" />
        </mxCell>
        <mxCell id="GCJxB1RPTs2br_yxcwbv-142" value="" style="shape=partialRectangle;collapsible=0;dropTarget=0;pointerEvents=0;fillColor=#e1d5e7;top=0;left=0;bottom=1;right=0;points=[[0,0.5],[1,0.5]];portConstraint=eastwest;strokeColor=#9673a6;" parent="GCJxB1RPTs2br_yxcwbv-141" vertex="1">
          <mxGeometry y="30" width="110" height="30" as="geometry" />
        </mxCell>
        <mxCell id="GCJxB1RPTs2br_yxcwbv-143" value="PK" style="shape=partialRectangle;connectable=0;fillColor=#e1d5e7;top=0;left=0;bottom=0;right=0;fontStyle=1;overflow=hidden;strokeColor=#9673a6;" parent="GCJxB1RPTs2br_yxcwbv-142" vertex="1">
          <mxGeometry width="30" height="30" as="geometry" />
        </mxCell>
        <mxCell id="GCJxB1RPTs2br_yxcwbv-144" value="InType_id" style="shape=partialRectangle;connectable=0;fillColor=#e1d5e7;top=0;left=0;bottom=0;right=0;align=left;spacingLeft=6;fontStyle=5;overflow=hidden;strokeColor=#9673a6;" parent="GCJxB1RPTs2br_yxcwbv-142" vertex="1">
          <mxGeometry x="30" width="80" height="30" as="geometry" />
        </mxCell>
        <mxCell id="GCJxB1RPTs2br_yxcwbv-145" value="" style="shape=partialRectangle;collapsible=0;dropTarget=0;pointerEvents=0;fillColor=#e1d5e7;top=0;left=0;bottom=0;right=0;points=[[0,0.5],[1,0.5]];portConstraint=eastwest;strokeColor=#9673a6;" parent="GCJxB1RPTs2br_yxcwbv-141" vertex="1">
          <mxGeometry y="60" width="110" height="30" as="geometry" />
        </mxCell>
        <mxCell id="GCJxB1RPTs2br_yxcwbv-146" value="" style="shape=partialRectangle;connectable=0;fillColor=#e1d5e7;top=0;left=0;bottom=0;right=0;editable=1;overflow=hidden;strokeColor=#9673a6;" parent="GCJxB1RPTs2br_yxcwbv-145" vertex="1">
          <mxGeometry width="30" height="30" as="geometry" />
        </mxCell>
        <mxCell id="GCJxB1RPTs2br_yxcwbv-147" value="Contract_id" style="shape=partialRectangle;connectable=0;fillColor=#e1d5e7;top=0;left=0;bottom=0;right=0;align=left;spacingLeft=6;overflow=hidden;strokeColor=#9673a6;" parent="GCJxB1RPTs2br_yxcwbv-145" vertex="1">
          <mxGeometry x="30" width="80" height="30" as="geometry" />
        </mxCell>
        <mxCell id="GCJxB1RPTs2br_yxcwbv-148" value="" style="shape=partialRectangle;collapsible=0;dropTarget=0;pointerEvents=0;fillColor=#e1d5e7;top=0;left=0;bottom=0;right=0;points=[[0,0.5],[1,0.5]];portConstraint=eastwest;strokeColor=#9673a6;" parent="GCJxB1RPTs2br_yxcwbv-141" vertex="1">
          <mxGeometry y="90" width="110" height="30" as="geometry" />
        </mxCell>
        <mxCell id="GCJxB1RPTs2br_yxcwbv-149" value="" style="shape=partialRectangle;connectable=0;fillColor=#e1d5e7;top=0;left=0;bottom=0;right=0;editable=1;overflow=hidden;strokeColor=#9673a6;" parent="GCJxB1RPTs2br_yxcwbv-148" vertex="1">
          <mxGeometry width="30" height="30" as="geometry" />
        </mxCell>
        <mxCell id="GCJxB1RPTs2br_yxcwbv-150" value="name" style="shape=partialRectangle;connectable=0;fillColor=#e1d5e7;top=0;left=0;bottom=0;right=0;align=left;spacingLeft=6;overflow=hidden;strokeColor=#9673a6;" parent="GCJxB1RPTs2br_yxcwbv-148" vertex="1">
          <mxGeometry x="30" width="80" height="30" as="geometry" />
        </mxCell>
        <mxCell id="GCJxB1RPTs2br_yxcwbv-151" value="" style="shape=partialRectangle;collapsible=0;dropTarget=0;pointerEvents=0;fillColor=#e1d5e7;top=0;left=0;bottom=0;right=0;points=[[0,0.5],[1,0.5]];portConstraint=eastwest;strokeColor=#9673a6;" parent="GCJxB1RPTs2br_yxcwbv-141" vertex="1">
          <mxGeometry y="120" width="110" height="30" as="geometry" />
        </mxCell>
        <mxCell id="GCJxB1RPTs2br_yxcwbv-152" value="" style="shape=partialRectangle;connectable=0;fillColor=#e1d5e7;top=0;left=0;bottom=0;right=0;editable=1;overflow=hidden;strokeColor=#9673a6;" parent="GCJxB1RPTs2br_yxcwbv-151" vertex="1">
          <mxGeometry width="30" height="30" as="geometry" />
        </mxCell>
        <mxCell id="GCJxB1RPTs2br_yxcwbv-153" value="Point" style="shape=partialRectangle;connectable=0;fillColor=#e1d5e7;top=0;left=0;bottom=0;right=0;align=left;spacingLeft=6;overflow=hidden;strokeColor=#9673a6;" parent="GCJxB1RPTs2br_yxcwbv-151" vertex="1">
          <mxGeometry x="30" width="80" height="30" as="geometry" />
        </mxCell>
        <mxCell id="GCJxB1RPTs2br_yxcwbv-162" style="edgeStyle=orthogonalEdgeStyle;rounded=0;orthogonalLoop=1;jettySize=auto;html=1;exitX=0;exitY=0.5;exitDx=0;exitDy=0;entryX=1;entryY=0.25;entryDx=0;entryDy=0;" parent="1" source="GCJxB1RPTs2br_yxcwbv-90" target="GCJxB1RPTs2br_yxcwbv-115" edge="1">
          <mxGeometry relative="1" as="geometry">
            <Array as="points">
              <mxPoint x="685" y="279" />
              <mxPoint x="650" y="279" />
              <mxPoint x="650" y="465" />
            </Array>
          </mxGeometry>
        </mxCell>
        <mxCell id="GCJxB1RPTs2br_yxcwbv-163" value="Contract" style="shape=table;startSize=30;container=1;collapsible=1;childLayout=tableLayout;fixedRows=1;rowLines=0;fontStyle=1;align=center;resizeLast=1;fillColor=#e1d5e7;strokeColor=#9673a6;" parent="1" vertex="1">
          <mxGeometry x="740" y="615" width="120" height="120" as="geometry" />
        </mxCell>
        <mxCell id="GCJxB1RPTs2br_yxcwbv-164" value="" style="shape=partialRectangle;collapsible=0;dropTarget=0;pointerEvents=0;fillColor=#e1d5e7;top=0;left=0;bottom=1;right=0;points=[[0,0.5],[1,0.5]];portConstraint=eastwest;strokeColor=#9673a6;" parent="GCJxB1RPTs2br_yxcwbv-163" vertex="1">
          <mxGeometry y="30" width="120" height="30" as="geometry" />
        </mxCell>
        <mxCell id="GCJxB1RPTs2br_yxcwbv-165" value="PK" style="shape=partialRectangle;connectable=0;fillColor=#e1d5e7;top=0;left=0;bottom=0;right=0;fontStyle=1;overflow=hidden;strokeColor=#9673a6;" parent="GCJxB1RPTs2br_yxcwbv-164" vertex="1">
          <mxGeometry width="30" height="30" as="geometry" />
        </mxCell>
        <mxCell id="GCJxB1RPTs2br_yxcwbv-166" value="Contract_id" style="shape=partialRectangle;connectable=0;fillColor=#e1d5e7;top=0;left=0;bottom=0;right=0;align=left;spacingLeft=6;fontStyle=5;overflow=hidden;strokeColor=#9673a6;" parent="GCJxB1RPTs2br_yxcwbv-164" vertex="1">
          <mxGeometry x="30" width="90" height="30" as="geometry" />
        </mxCell>
        <mxCell id="GCJxB1RPTs2br_yxcwbv-167" value="" style="shape=partialRectangle;collapsible=0;dropTarget=0;pointerEvents=0;fillColor=#e1d5e7;top=0;left=0;bottom=0;right=0;points=[[0,0.5],[1,0.5]];portConstraint=eastwest;strokeColor=#9673a6;" parent="GCJxB1RPTs2br_yxcwbv-163" vertex="1">
          <mxGeometry y="60" width="120" height="30" as="geometry" />
        </mxCell>
        <mxCell id="GCJxB1RPTs2br_yxcwbv-168" value="" style="shape=partialRectangle;connectable=0;fillColor=#e1d5e7;top=0;left=0;bottom=0;right=0;editable=1;overflow=hidden;strokeColor=#9673a6;" parent="GCJxB1RPTs2br_yxcwbv-167" vertex="1">
          <mxGeometry width="30" height="30" as="geometry" />
        </mxCell>
        <mxCell id="GCJxB1RPTs2br_yxcwbv-169" value="Contract_name" style="shape=partialRectangle;connectable=0;fillColor=#e1d5e7;top=0;left=0;bottom=0;right=0;align=left;spacingLeft=6;overflow=hidden;strokeColor=#9673a6;" parent="GCJxB1RPTs2br_yxcwbv-167" vertex="1">
          <mxGeometry x="30" width="90" height="30" as="geometry" />
        </mxCell>
        <mxCell id="GCJxB1RPTs2br_yxcwbv-170" value="" style="shape=partialRectangle;collapsible=0;dropTarget=0;pointerEvents=0;fillColor=#e1d5e7;top=0;left=0;bottom=0;right=0;points=[[0,0.5],[1,0.5]];portConstraint=eastwest;strokeColor=#9673a6;" parent="GCJxB1RPTs2br_yxcwbv-163" vertex="1">
          <mxGeometry y="90" width="120" height="30" as="geometry" />
        </mxCell>
        <mxCell id="GCJxB1RPTs2br_yxcwbv-171" value="" style="shape=partialRectangle;connectable=0;fillColor=#e1d5e7;top=0;left=0;bottom=0;right=0;editable=1;overflow=hidden;strokeColor=#9673a6;" parent="GCJxB1RPTs2br_yxcwbv-170" vertex="1">
          <mxGeometry width="30" height="30" as="geometry" />
        </mxCell>
        <mxCell id="GCJxB1RPTs2br_yxcwbv-172" value="Desc" style="shape=partialRectangle;connectable=0;fillColor=#e1d5e7;top=0;left=0;bottom=0;right=0;align=left;spacingLeft=6;overflow=hidden;strokeColor=#9673a6;" parent="GCJxB1RPTs2br_yxcwbv-170" vertex="1">
          <mxGeometry x="30" width="90" height="30" as="geometry" />
        </mxCell>
        <object label="User_account" id="GCJxB1RPTs2br_yxcwbv-177">
          <mxCell style="shape=table;startSize=30;container=1;collapsible=1;childLayout=tableLayout;fixedRows=1;rowLines=0;fontStyle=1;align=center;resizeLast=1;fillColor=#e1d5e7;strokeColor=#9673a6;" parent="1" vertex="1">
            <mxGeometry x="493" y="625" width="145" height="180" as="geometry" />
          </mxCell>
        </object>
        <mxCell id="GCJxB1RPTs2br_yxcwbv-178" value="" style="shape=partialRectangle;collapsible=0;dropTarget=0;pointerEvents=0;fillColor=#e1d5e7;top=0;left=0;bottom=1;right=0;points=[[0,0.5],[1,0.5]];portConstraint=eastwest;strokeColor=#9673a6;" parent="GCJxB1RPTs2br_yxcwbv-177" vertex="1">
          <mxGeometry y="30" width="145" height="30" as="geometry" />
        </mxCell>
        <mxCell id="GCJxB1RPTs2br_yxcwbv-179" value="PK" style="shape=partialRectangle;connectable=0;fillColor=#e1d5e7;top=0;left=0;bottom=0;right=0;fontStyle=1;overflow=hidden;strokeColor=#9673a6;" parent="GCJxB1RPTs2br_yxcwbv-178" vertex="1">
          <mxGeometry width="30" height="30" as="geometry" />
        </mxCell>
        <mxCell id="GCJxB1RPTs2br_yxcwbv-180" value="Account_id" style="shape=partialRectangle;connectable=0;fillColor=#e1d5e7;top=0;left=0;bottom=0;right=0;align=left;spacingLeft=6;fontStyle=5;overflow=hidden;strokeColor=#9673a6;" parent="GCJxB1RPTs2br_yxcwbv-178" vertex="1">
          <mxGeometry x="30" width="115" height="30" as="geometry" />
        </mxCell>
        <mxCell id="GCJxB1RPTs2br_yxcwbv-181" value="" style="shape=partialRectangle;collapsible=0;dropTarget=0;pointerEvents=0;fillColor=#e1d5e7;top=0;left=0;bottom=0;right=0;points=[[0,0.5],[1,0.5]];portConstraint=eastwest;strokeColor=#9673a6;" parent="GCJxB1RPTs2br_yxcwbv-177" vertex="1">
          <mxGeometry y="60" width="145" height="30" as="geometry" />
        </mxCell>
        <mxCell id="GCJxB1RPTs2br_yxcwbv-182" value="" style="shape=partialRectangle;connectable=0;fillColor=#e1d5e7;top=0;left=0;bottom=0;right=0;editable=1;overflow=hidden;strokeColor=#9673a6;" parent="GCJxB1RPTs2br_yxcwbv-181" vertex="1">
          <mxGeometry width="30" height="30" as="geometry" />
        </mxCell>
        <mxCell id="GCJxB1RPTs2br_yxcwbv-183" value="user_id" style="shape=partialRectangle;connectable=0;fillColor=#e1d5e7;top=0;left=0;bottom=0;right=0;align=left;spacingLeft=6;overflow=hidden;strokeColor=#9673a6;" parent="GCJxB1RPTs2br_yxcwbv-181" vertex="1">
          <mxGeometry x="30" width="115" height="30" as="geometry" />
        </mxCell>
        <mxCell id="GCJxB1RPTs2br_yxcwbv-184" value="" style="shape=partialRectangle;collapsible=0;dropTarget=0;pointerEvents=0;fillColor=#e1d5e7;top=0;left=0;bottom=0;right=0;points=[[0,0.5],[1,0.5]];portConstraint=eastwest;strokeColor=#9673a6;" parent="GCJxB1RPTs2br_yxcwbv-177" vertex="1">
          <mxGeometry y="90" width="145" height="30" as="geometry" />
        </mxCell>
        <mxCell id="GCJxB1RPTs2br_yxcwbv-185" value="" style="shape=partialRectangle;connectable=0;fillColor=#e1d5e7;top=0;left=0;bottom=0;right=0;editable=1;overflow=hidden;strokeColor=#9673a6;" parent="GCJxB1RPTs2br_yxcwbv-184" vertex="1">
          <mxGeometry width="30" height="30" as="geometry" />
        </mxCell>
        <mxCell id="GCJxB1RPTs2br_yxcwbv-186" value="Bank_name" style="shape=partialRectangle;connectable=0;fillColor=#e1d5e7;top=0;left=0;bottom=0;right=0;align=left;spacingLeft=6;overflow=hidden;strokeColor=#9673a6;" parent="GCJxB1RPTs2br_yxcwbv-184" vertex="1">
          <mxGeometry x="30" width="115" height="30" as="geometry" />
        </mxCell>
        <mxCell id="GCJxB1RPTs2br_yxcwbv-187" value="" style="shape=partialRectangle;collapsible=0;dropTarget=0;pointerEvents=0;fillColor=#e1d5e7;top=0;left=0;bottom=0;right=0;points=[[0,0.5],[1,0.5]];portConstraint=eastwest;strokeColor=#9673a6;" parent="GCJxB1RPTs2br_yxcwbv-177" vertex="1">
          <mxGeometry y="120" width="145" height="30" as="geometry" />
        </mxCell>
        <mxCell id="GCJxB1RPTs2br_yxcwbv-188" value="" style="shape=partialRectangle;connectable=0;fillColor=#e1d5e7;top=0;left=0;bottom=0;right=0;editable=1;overflow=hidden;strokeColor=#9673a6;" parent="GCJxB1RPTs2br_yxcwbv-187" vertex="1">
          <mxGeometry width="30" height="30" as="geometry" />
        </mxCell>
        <mxCell id="GCJxB1RPTs2br_yxcwbv-189" value="Bank_no" style="shape=partialRectangle;connectable=0;fillColor=#e1d5e7;top=0;left=0;bottom=0;right=0;align=left;spacingLeft=6;overflow=hidden;strokeColor=#9673a6;" parent="GCJxB1RPTs2br_yxcwbv-187" vertex="1">
          <mxGeometry x="30" width="115" height="30" as="geometry" />
        </mxCell>
        <mxCell id="GCJxB1RPTs2br_yxcwbv-190" value="" style="shape=partialRectangle;collapsible=0;dropTarget=0;pointerEvents=0;fillColor=#e1d5e7;top=0;left=0;bottom=0;right=0;points=[[0,0.5],[1,0.5]];portConstraint=eastwest;strokeColor=#9673a6;" parent="GCJxB1RPTs2br_yxcwbv-177" vertex="1">
          <mxGeometry y="150" width="145" height="30" as="geometry" />
        </mxCell>
        <mxCell id="GCJxB1RPTs2br_yxcwbv-191" value="" style="shape=partialRectangle;connectable=0;fillColor=#e1d5e7;top=0;left=0;bottom=0;right=0;editable=1;overflow=hidden;strokeColor=#9673a6;" parent="GCJxB1RPTs2br_yxcwbv-190" vertex="1">
          <mxGeometry width="30" height="30" as="geometry" />
        </mxCell>
        <mxCell id="GCJxB1RPTs2br_yxcwbv-192" value="Validate_time" style="shape=partialRectangle;connectable=0;fillColor=#e1d5e7;top=0;left=0;bottom=0;right=0;align=left;spacingLeft=6;overflow=hidden;strokeColor=#9673a6;" parent="GCJxB1RPTs2br_yxcwbv-190" vertex="1">
          <mxGeometry x="30" width="115" height="30" as="geometry" />
        </mxCell>
        <mxCell id="GCJxB1RPTs2br_yxcwbv-193" style="edgeStyle=orthogonalEdgeStyle;rounded=0;orthogonalLoop=1;jettySize=auto;html=1;exitX=0;exitY=0.5;exitDx=0;exitDy=0;entryX=0;entryY=0.5;entryDx=0;entryDy=0;" parent="1" source="GCJxB1RPTs2br_yxcwbv-178" target="GCJxB1RPTs2br_yxcwbv-156" edge="1">
          <mxGeometry relative="1" as="geometry" />
        </mxCell>
        <mxCell id="GCJxB1RPTs2br_yxcwbv-247" style="edgeStyle=orthogonalEdgeStyle;rounded=0;orthogonalLoop=1;jettySize=auto;html=1;exitX=0.5;exitY=1;exitDx=0;exitDy=0;entryX=0.5;entryY=0;entryDx=0;entryDy=0;" parent="1" source="GCJxB1RPTs2br_yxcwbv-194" target="GCJxB1RPTs2br_yxcwbv-225" edge="1">
          <mxGeometry relative="1" as="geometry" />
        </mxCell>
        <mxCell id="GCJxB1RPTs2br_yxcwbv-194" value="Notification Management" style="rounded=0;whiteSpace=wrap;html=1;fillColor=#ffe6cc;strokeColor=#d79b00;" parent="1" vertex="1">
          <mxGeometry x="92.5" y="820" width="157.5" height="70" as="geometry" />
        </mxCell>
        <mxCell id="GCJxB1RPTs2br_yxcwbv-248" style="edgeStyle=orthogonalEdgeStyle;rounded=0;orthogonalLoop=1;jettySize=auto;html=1;exitX=0.5;exitY=1;exitDx=0;exitDy=0;" parent="1" source="GCJxB1RPTs2br_yxcwbv-195" target="GCJxB1RPTs2br_yxcwbv-198" edge="1">
          <mxGeometry relative="1" as="geometry" />
        </mxCell>
        <mxCell id="GCJxB1RPTs2br_yxcwbv-195" value="Payment Management" style="rounded=0;whiteSpace=wrap;html=1;fillColor=#fff2cc;strokeColor=#d6b656;" parent="1" vertex="1">
          <mxGeometry x="300" y="820" width="180" height="60" as="geometry" />
        </mxCell>
        <mxCell id="GCJxB1RPTs2br_yxcwbv-315" style="edgeStyle=orthogonalEdgeStyle;rounded=0;orthogonalLoop=1;jettySize=auto;html=1;exitX=0.5;exitY=1;exitDx=0;exitDy=0;entryX=0.5;entryY=0;entryDx=0;entryDy=0;" parent="1" source="GCJxB1RPTs2br_yxcwbv-196" target="GCJxB1RPTs2br_yxcwbv-249" edge="1">
          <mxGeometry relative="1" as="geometry" />
        </mxCell>
        <mxCell id="GCJxB1RPTs2br_yxcwbv-196" value="Billing Management" style="rounded=0;whiteSpace=wrap;html=1;fillColor=#008a00;strokeColor=#005700;fontColor=#ffffff;" parent="1" vertex="1">
          <mxGeometry x="535" y="825" width="135" height="60" as="geometry" />
        </mxCell>
        <mxCell id="GCJxB1RPTs2br_yxcwbv-316" style="edgeStyle=orthogonalEdgeStyle;rounded=0;orthogonalLoop=1;jettySize=auto;html=1;exitX=0.5;exitY=1;exitDx=0;exitDy=0;entryX=0.5;entryY=0;entryDx=0;entryDy=0;" parent="1" source="GCJxB1RPTs2br_yxcwbv-197" target="GCJxB1RPTs2br_yxcwbv-271" edge="1">
          <mxGeometry relative="1" as="geometry" />
        </mxCell>
        <mxCell id="GCJxB1RPTs2br_yxcwbv-317" style="edgeStyle=orthogonalEdgeStyle;rounded=0;orthogonalLoop=1;jettySize=auto;html=1;exitX=0.5;exitY=1;exitDx=0;exitDy=0;entryX=0.5;entryY=0;entryDx=0;entryDy=0;" parent="1" source="GCJxB1RPTs2br_yxcwbv-197" target="GCJxB1RPTs2br_yxcwbv-293" edge="1">
          <mxGeometry relative="1" as="geometry" />
        </mxCell>
        <mxCell id="GCJxB1RPTs2br_yxcwbv-197" value="Trip Management" style="rounded=0;whiteSpace=wrap;html=1;fillColor=#647687;strokeColor=#314354;fontColor=#ffffff;" parent="1" vertex="1">
          <mxGeometry x="810" y="810" width="170" height="60" as="geometry" />
        </mxCell>
        <mxCell id="GCJxB1RPTs2br_yxcwbv-198" value="Payment" style="shape=table;startSize=30;container=1;collapsible=1;childLayout=tableLayout;fixedRows=1;rowLines=0;fontStyle=1;align=center;resizeLast=1;fillColor=#fff2cc;strokeColor=#d6b656;" parent="1" vertex="1">
          <mxGeometry x="300" y="910" width="137" height="150" as="geometry" />
        </mxCell>
        <mxCell id="GCJxB1RPTs2br_yxcwbv-199" value="" style="shape=partialRectangle;collapsible=0;dropTarget=0;pointerEvents=0;fillColor=#fff2cc;top=0;left=0;bottom=1;right=0;points=[[0,0.5],[1,0.5]];portConstraint=eastwest;strokeColor=#d6b656;" parent="GCJxB1RPTs2br_yxcwbv-198" vertex="1">
          <mxGeometry y="30" width="137" height="30" as="geometry" />
        </mxCell>
        <mxCell id="GCJxB1RPTs2br_yxcwbv-200" value="PK" style="shape=partialRectangle;connectable=0;fillColor=#fff2cc;top=0;left=0;bottom=0;right=0;fontStyle=1;overflow=hidden;strokeColor=#d6b656;" parent="GCJxB1RPTs2br_yxcwbv-199" vertex="1">
          <mxGeometry width="30" height="30" as="geometry" />
        </mxCell>
        <mxCell id="GCJxB1RPTs2br_yxcwbv-201" value="Payment_id" style="shape=partialRectangle;connectable=0;fillColor=#fff2cc;top=0;left=0;bottom=0;right=0;align=left;spacingLeft=6;fontStyle=5;overflow=hidden;strokeColor=#d6b656;" parent="GCJxB1RPTs2br_yxcwbv-199" vertex="1">
          <mxGeometry x="30" width="107" height="30" as="geometry" />
        </mxCell>
        <mxCell id="GCJxB1RPTs2br_yxcwbv-202" value="" style="shape=partialRectangle;collapsible=0;dropTarget=0;pointerEvents=0;fillColor=#fff2cc;top=0;left=0;bottom=0;right=0;points=[[0,0.5],[1,0.5]];portConstraint=eastwest;strokeColor=#d6b656;" parent="GCJxB1RPTs2br_yxcwbv-198" vertex="1">
          <mxGeometry y="60" width="137" height="30" as="geometry" />
        </mxCell>
        <mxCell id="GCJxB1RPTs2br_yxcwbv-203" value="" style="shape=partialRectangle;connectable=0;fillColor=#fff2cc;top=0;left=0;bottom=0;right=0;editable=1;overflow=hidden;strokeColor=#d6b656;" parent="GCJxB1RPTs2br_yxcwbv-202" vertex="1">
          <mxGeometry width="30" height="30" as="geometry" />
        </mxCell>
        <mxCell id="GCJxB1RPTs2br_yxcwbv-204" value="Payment_type_id" style="shape=partialRectangle;connectable=0;fillColor=#fff2cc;top=0;left=0;bottom=0;right=0;align=left;spacingLeft=6;overflow=hidden;strokeColor=#d6b656;" parent="GCJxB1RPTs2br_yxcwbv-202" vertex="1">
          <mxGeometry x="30" width="107" height="30" as="geometry" />
        </mxCell>
        <mxCell id="GCJxB1RPTs2br_yxcwbv-205" value="" style="shape=partialRectangle;collapsible=0;dropTarget=0;pointerEvents=0;fillColor=#fff2cc;top=0;left=0;bottom=0;right=0;points=[[0,0.5],[1,0.5]];portConstraint=eastwest;strokeColor=#d6b656;" parent="GCJxB1RPTs2br_yxcwbv-198" vertex="1">
          <mxGeometry y="90" width="137" height="30" as="geometry" />
        </mxCell>
        <mxCell id="GCJxB1RPTs2br_yxcwbv-206" value="" style="shape=partialRectangle;connectable=0;fillColor=#fff2cc;top=0;left=0;bottom=0;right=0;editable=1;overflow=hidden;strokeColor=#d6b656;" parent="GCJxB1RPTs2br_yxcwbv-205" vertex="1">
          <mxGeometry width="30" height="30" as="geometry" />
        </mxCell>
        <mxCell id="GCJxB1RPTs2br_yxcwbv-207" value="Payment_account" style="shape=partialRectangle;connectable=0;fillColor=#fff2cc;top=0;left=0;bottom=0;right=0;align=left;spacingLeft=6;overflow=hidden;strokeColor=#d6b656;" parent="GCJxB1RPTs2br_yxcwbv-205" vertex="1">
          <mxGeometry x="30" width="107" height="30" as="geometry" />
        </mxCell>
        <mxCell id="GCJxB1RPTs2br_yxcwbv-208" value="" style="shape=partialRectangle;collapsible=0;dropTarget=0;pointerEvents=0;fillColor=#fff2cc;top=0;left=0;bottom=0;right=0;points=[[0,0.5],[1,0.5]];portConstraint=eastwest;strokeColor=#d6b656;" parent="GCJxB1RPTs2br_yxcwbv-198" vertex="1">
          <mxGeometry y="120" width="137" height="30" as="geometry" />
        </mxCell>
        <mxCell id="GCJxB1RPTs2br_yxcwbv-209" value="" style="shape=partialRectangle;connectable=0;fillColor=#fff2cc;top=0;left=0;bottom=0;right=0;editable=1;overflow=hidden;strokeColor=#d6b656;" parent="GCJxB1RPTs2br_yxcwbv-208" vertex="1">
          <mxGeometry width="30" height="30" as="geometry" />
        </mxCell>
        <mxCell id="GCJxB1RPTs2br_yxcwbv-210" value="Payment_time" style="shape=partialRectangle;connectable=0;fillColor=#fff2cc;top=0;left=0;bottom=0;right=0;align=left;spacingLeft=6;overflow=hidden;strokeColor=#d6b656;" parent="GCJxB1RPTs2br_yxcwbv-208" vertex="1">
          <mxGeometry x="30" width="107" height="30" as="geometry" />
        </mxCell>
        <mxCell id="GCJxB1RPTs2br_yxcwbv-211" value="Payment_type" style="shape=table;startSize=30;container=1;collapsible=1;childLayout=tableLayout;fixedRows=1;rowLines=0;fontStyle=1;align=center;resizeLast=1;fillColor=#fff2cc;strokeColor=#d6b656;" parent="1" vertex="1">
          <mxGeometry x="340" y="1110" width="170" height="150" as="geometry" />
        </mxCell>
        <mxCell id="GCJxB1RPTs2br_yxcwbv-212" value="" style="shape=partialRectangle;collapsible=0;dropTarget=0;pointerEvents=0;fillColor=#fff2cc;top=0;left=0;bottom=1;right=0;points=[[0,0.5],[1,0.5]];portConstraint=eastwest;strokeColor=#d6b656;" parent="GCJxB1RPTs2br_yxcwbv-211" vertex="1">
          <mxGeometry y="30" width="170" height="30" as="geometry" />
        </mxCell>
        <mxCell id="GCJxB1RPTs2br_yxcwbv-213" value="PK" style="shape=partialRectangle;connectable=0;fillColor=#fff2cc;top=0;left=0;bottom=0;right=0;fontStyle=1;overflow=hidden;strokeColor=#d6b656;" parent="GCJxB1RPTs2br_yxcwbv-212" vertex="1">
          <mxGeometry width="30" height="30" as="geometry" />
        </mxCell>
        <mxCell id="GCJxB1RPTs2br_yxcwbv-214" value="Payment_type_id" style="shape=partialRectangle;connectable=0;fillColor=#fff2cc;top=0;left=0;bottom=0;right=0;align=left;spacingLeft=6;fontStyle=5;overflow=hidden;strokeColor=#d6b656;" parent="GCJxB1RPTs2br_yxcwbv-212" vertex="1">
          <mxGeometry x="30" width="140" height="30" as="geometry" />
        </mxCell>
        <mxCell id="GCJxB1RPTs2br_yxcwbv-215" value="" style="shape=partialRectangle;collapsible=0;dropTarget=0;pointerEvents=0;fillColor=#fff2cc;top=0;left=0;bottom=0;right=0;points=[[0,0.5],[1,0.5]];portConstraint=eastwest;strokeColor=#d6b656;" parent="GCJxB1RPTs2br_yxcwbv-211" vertex="1">
          <mxGeometry y="60" width="170" height="30" as="geometry" />
        </mxCell>
        <mxCell id="GCJxB1RPTs2br_yxcwbv-216" value="" style="shape=partialRectangle;connectable=0;fillColor=#fff2cc;top=0;left=0;bottom=0;right=0;editable=1;overflow=hidden;strokeColor=#d6b656;" parent="GCJxB1RPTs2br_yxcwbv-215" vertex="1">
          <mxGeometry width="30" height="30" as="geometry" />
        </mxCell>
        <mxCell id="GCJxB1RPTs2br_yxcwbv-217" value="Payment_type_name" style="shape=partialRectangle;connectable=0;fillColor=#fff2cc;top=0;left=0;bottom=0;right=0;align=left;spacingLeft=6;overflow=hidden;strokeColor=#d6b656;" parent="GCJxB1RPTs2br_yxcwbv-215" vertex="1">
          <mxGeometry x="30" width="140" height="30" as="geometry" />
        </mxCell>
        <mxCell id="GCJxB1RPTs2br_yxcwbv-218" value="" style="shape=partialRectangle;collapsible=0;dropTarget=0;pointerEvents=0;fillColor=#fff2cc;top=0;left=0;bottom=0;right=0;points=[[0,0.5],[1,0.5]];portConstraint=eastwest;strokeColor=#d6b656;" parent="GCJxB1RPTs2br_yxcwbv-211" vertex="1">
          <mxGeometry y="90" width="170" height="30" as="geometry" />
        </mxCell>
        <mxCell id="GCJxB1RPTs2br_yxcwbv-219" value="" style="shape=partialRectangle;connectable=0;fillColor=#fff2cc;top=0;left=0;bottom=0;right=0;editable=1;overflow=hidden;strokeColor=#d6b656;" parent="GCJxB1RPTs2br_yxcwbv-218" vertex="1">
          <mxGeometry width="30" height="30" as="geometry" />
        </mxCell>
        <mxCell id="GCJxB1RPTs2br_yxcwbv-220" value="Payment_type_desc" style="shape=partialRectangle;connectable=0;fillColor=#fff2cc;top=0;left=0;bottom=0;right=0;align=left;spacingLeft=6;overflow=hidden;strokeColor=#d6b656;" parent="GCJxB1RPTs2br_yxcwbv-218" vertex="1">
          <mxGeometry x="30" width="140" height="30" as="geometry" />
        </mxCell>
        <mxCell id="GCJxB1RPTs2br_yxcwbv-221" value="" style="shape=partialRectangle;collapsible=0;dropTarget=0;pointerEvents=0;fillColor=#fff2cc;top=0;left=0;bottom=0;right=0;points=[[0,0.5],[1,0.5]];portConstraint=eastwest;strokeColor=#d6b656;" parent="GCJxB1RPTs2br_yxcwbv-211" vertex="1">
          <mxGeometry y="120" width="170" height="30" as="geometry" />
        </mxCell>
        <mxCell id="GCJxB1RPTs2br_yxcwbv-222" value="" style="shape=partialRectangle;connectable=0;fillColor=#fff2cc;top=0;left=0;bottom=0;right=0;editable=1;overflow=hidden;strokeColor=#d6b656;" parent="GCJxB1RPTs2br_yxcwbv-221" vertex="1">
          <mxGeometry width="30" height="30" as="geometry" />
        </mxCell>
        <mxCell id="GCJxB1RPTs2br_yxcwbv-223" value="Create_time" style="shape=partialRectangle;connectable=0;fillColor=#fff2cc;top=0;left=0;bottom=0;right=0;align=left;spacingLeft=6;overflow=hidden;strokeColor=#d6b656;" parent="GCJxB1RPTs2br_yxcwbv-221" vertex="1">
          <mxGeometry x="30" width="140" height="30" as="geometry" />
        </mxCell>
        <mxCell id="GCJxB1RPTs2br_yxcwbv-224" style="edgeStyle=orthogonalEdgeStyle;rounded=0;orthogonalLoop=1;jettySize=auto;html=1;exitX=0;exitY=0.5;exitDx=0;exitDy=0;entryX=1;entryY=0.5;entryDx=0;entryDy=0;fillColor=#fff2cc;strokeColor=#d6b656;" parent="1" source="GCJxB1RPTs2br_yxcwbv-212" target="GCJxB1RPTs2br_yxcwbv-198" edge="1">
          <mxGeometry relative="1" as="geometry" />
        </mxCell>
        <mxCell id="GCJxB1RPTs2br_yxcwbv-225" value="Notification" style="shape=table;startSize=30;container=1;collapsible=1;childLayout=tableLayout;fixedRows=1;rowLines=0;fontStyle=1;align=center;resizeLast=1;fillColor=#ffe6cc;strokeColor=#d79b00;" parent="1" vertex="1">
          <mxGeometry x="90" y="910" width="160" height="240" as="geometry" />
        </mxCell>
        <mxCell id="GCJxB1RPTs2br_yxcwbv-226" value="" style="shape=partialRectangle;collapsible=0;dropTarget=0;pointerEvents=0;fillColor=#ffe6cc;top=0;left=0;bottom=1;right=0;points=[[0,0.5],[1,0.5]];portConstraint=eastwest;strokeColor=#d79b00;" parent="GCJxB1RPTs2br_yxcwbv-225" vertex="1">
          <mxGeometry y="30" width="160" height="30" as="geometry" />
        </mxCell>
        <mxCell id="GCJxB1RPTs2br_yxcwbv-227" value="PK" style="shape=partialRectangle;connectable=0;fillColor=#ffe6cc;top=0;left=0;bottom=0;right=0;fontStyle=1;overflow=hidden;strokeColor=#d79b00;" parent="GCJxB1RPTs2br_yxcwbv-226" vertex="1">
          <mxGeometry width="30" height="30" as="geometry" />
        </mxCell>
        <mxCell id="GCJxB1RPTs2br_yxcwbv-228" value="Notification_id" style="shape=partialRectangle;connectable=0;fillColor=#ffe6cc;top=0;left=0;bottom=0;right=0;align=left;spacingLeft=6;fontStyle=5;overflow=hidden;strokeColor=#d79b00;" parent="GCJxB1RPTs2br_yxcwbv-226" vertex="1">
          <mxGeometry x="30" width="130" height="30" as="geometry" />
        </mxCell>
        <mxCell id="GCJxB1RPTs2br_yxcwbv-229" value="" style="shape=partialRectangle;collapsible=0;dropTarget=0;pointerEvents=0;fillColor=#ffe6cc;top=0;left=0;bottom=0;right=0;points=[[0,0.5],[1,0.5]];portConstraint=eastwest;strokeColor=#d79b00;" parent="GCJxB1RPTs2br_yxcwbv-225" vertex="1">
          <mxGeometry y="60" width="160" height="30" as="geometry" />
        </mxCell>
        <mxCell id="GCJxB1RPTs2br_yxcwbv-230" value="" style="shape=partialRectangle;connectable=0;fillColor=#ffe6cc;top=0;left=0;bottom=0;right=0;editable=1;overflow=hidden;strokeColor=#d79b00;" parent="GCJxB1RPTs2br_yxcwbv-229" vertex="1">
          <mxGeometry width="30" height="30" as="geometry" />
        </mxCell>
        <mxCell id="GCJxB1RPTs2br_yxcwbv-231" value="Notification_type" style="shape=partialRectangle;connectable=0;fillColor=#ffe6cc;top=0;left=0;bottom=0;right=0;align=left;spacingLeft=6;overflow=hidden;strokeColor=#d79b00;" parent="GCJxB1RPTs2br_yxcwbv-229" vertex="1">
          <mxGeometry x="30" width="130" height="30" as="geometry" />
        </mxCell>
        <mxCell id="GCJxB1RPTs2br_yxcwbv-232" value="" style="shape=partialRectangle;collapsible=0;dropTarget=0;pointerEvents=0;fillColor=#ffe6cc;top=0;left=0;bottom=0;right=0;points=[[0,0.5],[1,0.5]];portConstraint=eastwest;strokeColor=#d79b00;" parent="GCJxB1RPTs2br_yxcwbv-225" vertex="1">
          <mxGeometry y="90" width="160" height="30" as="geometry" />
        </mxCell>
        <mxCell id="GCJxB1RPTs2br_yxcwbv-233" value="" style="shape=partialRectangle;connectable=0;fillColor=#ffe6cc;top=0;left=0;bottom=0;right=0;editable=1;overflow=hidden;strokeColor=#d79b00;" parent="GCJxB1RPTs2br_yxcwbv-232" vertex="1">
          <mxGeometry width="30" height="30" as="geometry" />
        </mxCell>
        <mxCell id="GCJxB1RPTs2br_yxcwbv-234" value="From_user_id" style="shape=partialRectangle;connectable=0;fillColor=#ffe6cc;top=0;left=0;bottom=0;right=0;align=left;spacingLeft=6;overflow=hidden;strokeColor=#d79b00;" parent="GCJxB1RPTs2br_yxcwbv-232" vertex="1">
          <mxGeometry x="30" width="130" height="30" as="geometry" />
        </mxCell>
        <mxCell id="GCJxB1RPTs2br_yxcwbv-235" value="" style="shape=partialRectangle;collapsible=0;dropTarget=0;pointerEvents=0;fillColor=#ffe6cc;top=0;left=0;bottom=0;right=0;points=[[0,0.5],[1,0.5]];portConstraint=eastwest;strokeColor=#d79b00;" parent="GCJxB1RPTs2br_yxcwbv-225" vertex="1">
          <mxGeometry y="120" width="160" height="30" as="geometry" />
        </mxCell>
        <mxCell id="GCJxB1RPTs2br_yxcwbv-236" value="" style="shape=partialRectangle;connectable=0;fillColor=#ffe6cc;top=0;left=0;bottom=0;right=0;editable=1;overflow=hidden;strokeColor=#d79b00;" parent="GCJxB1RPTs2br_yxcwbv-235" vertex="1">
          <mxGeometry width="30" height="30" as="geometry" />
        </mxCell>
        <mxCell id="GCJxB1RPTs2br_yxcwbv-237" value="To_user_id" style="shape=partialRectangle;connectable=0;fillColor=#ffe6cc;top=0;left=0;bottom=0;right=0;align=left;spacingLeft=6;overflow=hidden;strokeColor=#d79b00;" parent="GCJxB1RPTs2br_yxcwbv-235" vertex="1">
          <mxGeometry x="30" width="130" height="30" as="geometry" />
        </mxCell>
        <mxCell id="GCJxB1RPTs2br_yxcwbv-238" value="" style="shape=partialRectangle;collapsible=0;dropTarget=0;pointerEvents=0;fillColor=#ffe6cc;top=0;left=0;bottom=0;right=0;points=[[0,0.5],[1,0.5]];portConstraint=eastwest;strokeColor=#d79b00;" parent="GCJxB1RPTs2br_yxcwbv-225" vertex="1">
          <mxGeometry y="150" width="160" height="30" as="geometry" />
        </mxCell>
        <mxCell id="GCJxB1RPTs2br_yxcwbv-239" value="" style="shape=partialRectangle;connectable=0;fillColor=#ffe6cc;top=0;left=0;bottom=0;right=0;editable=1;overflow=hidden;strokeColor=#d79b00;" parent="GCJxB1RPTs2br_yxcwbv-238" vertex="1">
          <mxGeometry width="30" height="30" as="geometry" />
        </mxCell>
        <mxCell id="GCJxB1RPTs2br_yxcwbv-240" value="Notification_title" style="shape=partialRectangle;connectable=0;fillColor=#ffe6cc;top=0;left=0;bottom=0;right=0;align=left;spacingLeft=6;overflow=hidden;strokeColor=#d79b00;" parent="GCJxB1RPTs2br_yxcwbv-238" vertex="1">
          <mxGeometry x="30" width="130" height="30" as="geometry" />
        </mxCell>
        <mxCell id="GCJxB1RPTs2br_yxcwbv-241" value="" style="shape=partialRectangle;collapsible=0;dropTarget=0;pointerEvents=0;fillColor=#ffe6cc;top=0;left=0;bottom=0;right=0;points=[[0,0.5],[1,0.5]];portConstraint=eastwest;strokeColor=#d79b00;" parent="GCJxB1RPTs2br_yxcwbv-225" vertex="1">
          <mxGeometry y="180" width="160" height="30" as="geometry" />
        </mxCell>
        <mxCell id="GCJxB1RPTs2br_yxcwbv-242" value="" style="shape=partialRectangle;connectable=0;fillColor=#ffe6cc;top=0;left=0;bottom=0;right=0;editable=1;overflow=hidden;strokeColor=#d79b00;" parent="GCJxB1RPTs2br_yxcwbv-241" vertex="1">
          <mxGeometry width="30" height="30" as="geometry" />
        </mxCell>
        <mxCell id="GCJxB1RPTs2br_yxcwbv-243" value="Notification_message" style="shape=partialRectangle;connectable=0;fillColor=#ffe6cc;top=0;left=0;bottom=0;right=0;align=left;spacingLeft=6;overflow=hidden;strokeColor=#d79b00;" parent="GCJxB1RPTs2br_yxcwbv-241" vertex="1">
          <mxGeometry x="30" width="130" height="30" as="geometry" />
        </mxCell>
        <mxCell id="GCJxB1RPTs2br_yxcwbv-244" value="" style="shape=partialRectangle;collapsible=0;dropTarget=0;pointerEvents=0;fillColor=#ffe6cc;top=0;left=0;bottom=0;right=0;points=[[0,0.5],[1,0.5]];portConstraint=eastwest;strokeColor=#d79b00;" parent="GCJxB1RPTs2br_yxcwbv-225" vertex="1">
          <mxGeometry y="210" width="160" height="30" as="geometry" />
        </mxCell>
        <mxCell id="GCJxB1RPTs2br_yxcwbv-245" value="" style="shape=partialRectangle;connectable=0;fillColor=#ffe6cc;top=0;left=0;bottom=0;right=0;editable=1;overflow=hidden;strokeColor=#d79b00;" parent="GCJxB1RPTs2br_yxcwbv-244" vertex="1">
          <mxGeometry width="30" height="30" as="geometry" />
        </mxCell>
        <mxCell id="GCJxB1RPTs2br_yxcwbv-246" value="Notification_time" style="shape=partialRectangle;connectable=0;fillColor=#ffe6cc;top=0;left=0;bottom=0;right=0;align=left;spacingLeft=6;overflow=hidden;strokeColor=#d79b00;" parent="GCJxB1RPTs2br_yxcwbv-244" vertex="1">
          <mxGeometry x="30" width="130" height="30" as="geometry" />
        </mxCell>
        <mxCell id="GCJxB1RPTs2br_yxcwbv-249" value="Transaction" style="shape=table;startSize=30;container=1;collapsible=1;childLayout=tableLayout;fixedRows=1;rowLines=0;fontStyle=1;align=center;resizeLast=1;fillColor=#008a00;strokeColor=#005700;fontColor=#ffffff;" parent="1" vertex="1">
          <mxGeometry x="522.5" y="910" width="160" height="240" as="geometry" />
        </mxCell>
        <mxCell id="GCJxB1RPTs2br_yxcwbv-250" value="" style="shape=partialRectangle;collapsible=0;dropTarget=0;pointerEvents=0;fillColor=#008a00;top=0;left=0;bottom=1;right=0;points=[[0,0.5],[1,0.5]];portConstraint=eastwest;strokeColor=#005700;fontColor=#ffffff;" parent="GCJxB1RPTs2br_yxcwbv-249" vertex="1">
          <mxGeometry y="30" width="160" height="30" as="geometry" />
        </mxCell>
        <mxCell id="GCJxB1RPTs2br_yxcwbv-251" value="PK" style="shape=partialRectangle;connectable=0;fillColor=#008a00;top=0;left=0;bottom=0;right=0;fontStyle=1;overflow=hidden;strokeColor=#005700;fontColor=#ffffff;" parent="GCJxB1RPTs2br_yxcwbv-250" vertex="1">
          <mxGeometry width="30" height="30" as="geometry" />
        </mxCell>
        <mxCell id="GCJxB1RPTs2br_yxcwbv-252" value="Transaction_id" style="shape=partialRectangle;connectable=0;fillColor=#008a00;top=0;left=0;bottom=0;right=0;align=left;spacingLeft=6;fontStyle=5;overflow=hidden;strokeColor=#005700;fontColor=#ffffff;" parent="GCJxB1RPTs2br_yxcwbv-250" vertex="1">
          <mxGeometry x="30" width="130" height="30" as="geometry" />
        </mxCell>
        <mxCell id="GCJxB1RPTs2br_yxcwbv-253" value="" style="shape=partialRectangle;collapsible=0;dropTarget=0;pointerEvents=0;fillColor=#008a00;top=0;left=0;bottom=0;right=0;points=[[0,0.5],[1,0.5]];portConstraint=eastwest;strokeColor=#005700;fontColor=#ffffff;" parent="GCJxB1RPTs2br_yxcwbv-249" vertex="1">
          <mxGeometry y="60" width="160" height="30" as="geometry" />
        </mxCell>
        <mxCell id="GCJxB1RPTs2br_yxcwbv-254" value="" style="shape=partialRectangle;connectable=0;fillColor=#008a00;top=0;left=0;bottom=0;right=0;editable=1;overflow=hidden;strokeColor=#005700;fontColor=#ffffff;" parent="GCJxB1RPTs2br_yxcwbv-253" vertex="1">
          <mxGeometry width="30" height="30" as="geometry" />
        </mxCell>
        <mxCell id="GCJxB1RPTs2br_yxcwbv-255" value="User_id" style="shape=partialRectangle;connectable=0;fillColor=#008a00;top=0;left=0;bottom=0;right=0;align=left;spacingLeft=6;overflow=hidden;strokeColor=#005700;fontColor=#ffffff;" parent="GCJxB1RPTs2br_yxcwbv-253" vertex="1">
          <mxGeometry x="30" width="130" height="30" as="geometry" />
        </mxCell>
        <mxCell id="GCJxB1RPTs2br_yxcwbv-256" value="" style="shape=partialRectangle;collapsible=0;dropTarget=0;pointerEvents=0;fillColor=#008a00;top=0;left=0;bottom=0;right=0;points=[[0,0.5],[1,0.5]];portConstraint=eastwest;strokeColor=#005700;fontColor=#ffffff;" parent="GCJxB1RPTs2br_yxcwbv-249" vertex="1">
          <mxGeometry y="90" width="160" height="30" as="geometry" />
        </mxCell>
        <mxCell id="GCJxB1RPTs2br_yxcwbv-257" value="" style="shape=partialRectangle;connectable=0;fillColor=#008a00;top=0;left=0;bottom=0;right=0;editable=1;overflow=hidden;strokeColor=#005700;fontColor=#ffffff;" parent="GCJxB1RPTs2br_yxcwbv-256" vertex="1">
          <mxGeometry width="30" height="30" as="geometry" />
        </mxCell>
        <mxCell id="GCJxB1RPTs2br_yxcwbv-258" value="Device_id" style="shape=partialRectangle;connectable=0;fillColor=#008a00;top=0;left=0;bottom=0;right=0;align=left;spacingLeft=6;overflow=hidden;strokeColor=#005700;fontColor=#ffffff;" parent="GCJxB1RPTs2br_yxcwbv-256" vertex="1">
          <mxGeometry x="30" width="130" height="30" as="geometry" />
        </mxCell>
        <mxCell id="GCJxB1RPTs2br_yxcwbv-259" value="" style="shape=partialRectangle;collapsible=0;dropTarget=0;pointerEvents=0;fillColor=#008a00;top=0;left=0;bottom=0;right=0;points=[[0,0.5],[1,0.5]];portConstraint=eastwest;strokeColor=#005700;fontColor=#ffffff;" parent="GCJxB1RPTs2br_yxcwbv-249" vertex="1">
          <mxGeometry y="120" width="160" height="30" as="geometry" />
        </mxCell>
        <mxCell id="GCJxB1RPTs2br_yxcwbv-260" value="" style="shape=partialRectangle;connectable=0;fillColor=#008a00;top=0;left=0;bottom=0;right=0;editable=1;overflow=hidden;strokeColor=#005700;fontColor=#ffffff;" parent="GCJxB1RPTs2br_yxcwbv-259" vertex="1">
          <mxGeometry width="30" height="30" as="geometry" />
        </mxCell>
        <mxCell id="GCJxB1RPTs2br_yxcwbv-261" value="Tran_location_id" style="shape=partialRectangle;connectable=0;fillColor=#008a00;top=0;left=0;bottom=0;right=0;align=left;spacingLeft=6;overflow=hidden;strokeColor=#005700;fontColor=#ffffff;" parent="GCJxB1RPTs2br_yxcwbv-259" vertex="1">
          <mxGeometry x="30" width="130" height="30" as="geometry" />
        </mxCell>
        <mxCell id="GCJxB1RPTs2br_yxcwbv-262" value="" style="shape=partialRectangle;collapsible=0;dropTarget=0;pointerEvents=0;fillColor=#008a00;top=0;left=0;bottom=0;right=0;points=[[0,0.5],[1,0.5]];portConstraint=eastwest;strokeColor=#005700;fontColor=#ffffff;" parent="GCJxB1RPTs2br_yxcwbv-249" vertex="1">
          <mxGeometry y="150" width="160" height="30" as="geometry" />
        </mxCell>
        <mxCell id="GCJxB1RPTs2br_yxcwbv-263" value="" style="shape=partialRectangle;connectable=0;fillColor=#008a00;top=0;left=0;bottom=0;right=0;editable=1;overflow=hidden;strokeColor=#005700;fontColor=#ffffff;" parent="GCJxB1RPTs2br_yxcwbv-262" vertex="1">
          <mxGeometry width="30" height="30" as="geometry" />
        </mxCell>
        <mxCell id="GCJxB1RPTs2br_yxcwbv-264" value="Payment_id" style="shape=partialRectangle;connectable=0;fillColor=#008a00;top=0;left=0;bottom=0;right=0;align=left;spacingLeft=6;overflow=hidden;strokeColor=#005700;fontColor=#ffffff;" parent="GCJxB1RPTs2br_yxcwbv-262" vertex="1">
          <mxGeometry x="30" width="130" height="30" as="geometry" />
        </mxCell>
        <mxCell id="GCJxB1RPTs2br_yxcwbv-265" value="" style="shape=partialRectangle;collapsible=0;dropTarget=0;pointerEvents=0;fillColor=#008a00;top=0;left=0;bottom=0;right=0;points=[[0,0.5],[1,0.5]];portConstraint=eastwest;strokeColor=#005700;fontColor=#ffffff;" parent="GCJxB1RPTs2br_yxcwbv-249" vertex="1">
          <mxGeometry y="180" width="160" height="30" as="geometry" />
        </mxCell>
        <mxCell id="GCJxB1RPTs2br_yxcwbv-266" value="" style="shape=partialRectangle;connectable=0;fillColor=#008a00;top=0;left=0;bottom=0;right=0;editable=1;overflow=hidden;strokeColor=#005700;fontColor=#ffffff;" parent="GCJxB1RPTs2br_yxcwbv-265" vertex="1">
          <mxGeometry width="30" height="30" as="geometry" />
        </mxCell>
        <mxCell id="GCJxB1RPTs2br_yxcwbv-267" value="Usage_time" style="shape=partialRectangle;connectable=0;fillColor=#008a00;top=0;left=0;bottom=0;right=0;align=left;spacingLeft=6;overflow=hidden;strokeColor=#005700;fontColor=#ffffff;" parent="GCJxB1RPTs2br_yxcwbv-265" vertex="1">
          <mxGeometry x="30" width="130" height="30" as="geometry" />
        </mxCell>
        <mxCell id="GCJxB1RPTs2br_yxcwbv-268" value="" style="shape=partialRectangle;collapsible=0;dropTarget=0;pointerEvents=0;fillColor=#008a00;top=0;left=0;bottom=0;right=0;points=[[0,0.5],[1,0.5]];portConstraint=eastwest;strokeColor=#005700;fontColor=#ffffff;" parent="GCJxB1RPTs2br_yxcwbv-249" vertex="1">
          <mxGeometry y="210" width="160" height="30" as="geometry" />
        </mxCell>
        <mxCell id="GCJxB1RPTs2br_yxcwbv-269" value="" style="shape=partialRectangle;connectable=0;fillColor=#008a00;top=0;left=0;bottom=0;right=0;editable=1;overflow=hidden;strokeColor=#005700;fontColor=#ffffff;" parent="GCJxB1RPTs2br_yxcwbv-268" vertex="1">
          <mxGeometry width="30" height="30" as="geometry" />
        </mxCell>
        <mxCell id="GCJxB1RPTs2br_yxcwbv-270" value="Score" style="shape=partialRectangle;connectable=0;fillColor=#008a00;top=0;left=0;bottom=0;right=0;align=left;spacingLeft=6;overflow=hidden;strokeColor=#005700;fontColor=#ffffff;" parent="GCJxB1RPTs2br_yxcwbv-268" vertex="1">
          <mxGeometry x="30" width="130" height="30" as="geometry" />
        </mxCell>
        <mxCell id="GCJxB1RPTs2br_yxcwbv-271" value="Tran_location" style="shape=table;startSize=30;container=1;collapsible=1;childLayout=tableLayout;fixedRows=1;rowLines=0;fontStyle=1;align=center;resizeLast=1;fillColor=#647687;strokeColor=#314354;fontColor=#ffffff;" parent="1" vertex="1">
          <mxGeometry x="735" y="910" width="160" height="240" as="geometry" />
        </mxCell>
        <mxCell id="GCJxB1RPTs2br_yxcwbv-272" value="" style="shape=partialRectangle;collapsible=0;dropTarget=0;pointerEvents=0;fillColor=#647687;top=0;left=0;bottom=1;right=0;points=[[0,0.5],[1,0.5]];portConstraint=eastwest;strokeColor=#314354;fontColor=#ffffff;" parent="GCJxB1RPTs2br_yxcwbv-271" vertex="1">
          <mxGeometry y="30" width="160" height="30" as="geometry" />
        </mxCell>
        <mxCell id="GCJxB1RPTs2br_yxcwbv-273" value="PK" style="shape=partialRectangle;connectable=0;fillColor=#647687;top=0;left=0;bottom=0;right=0;fontStyle=1;overflow=hidden;strokeColor=#314354;fontColor=#ffffff;" parent="GCJxB1RPTs2br_yxcwbv-272" vertex="1">
          <mxGeometry width="30" height="30" as="geometry" />
        </mxCell>
        <mxCell id="GCJxB1RPTs2br_yxcwbv-274" value="Tran_location_id" style="shape=partialRectangle;connectable=0;fillColor=#647687;top=0;left=0;bottom=0;right=0;align=left;spacingLeft=6;fontStyle=5;overflow=hidden;strokeColor=#314354;fontColor=#ffffff;" parent="GCJxB1RPTs2br_yxcwbv-272" vertex="1">
          <mxGeometry x="30" width="130" height="30" as="geometry" />
        </mxCell>
        <mxCell id="GCJxB1RPTs2br_yxcwbv-275" value="" style="shape=partialRectangle;collapsible=0;dropTarget=0;pointerEvents=0;fillColor=#647687;top=0;left=0;bottom=0;right=0;points=[[0,0.5],[1,0.5]];portConstraint=eastwest;strokeColor=#314354;fontColor=#ffffff;" parent="GCJxB1RPTs2br_yxcwbv-271" vertex="1">
          <mxGeometry y="60" width="160" height="30" as="geometry" />
        </mxCell>
        <mxCell id="GCJxB1RPTs2br_yxcwbv-276" value="" style="shape=partialRectangle;connectable=0;fillColor=#647687;top=0;left=0;bottom=0;right=0;editable=1;overflow=hidden;strokeColor=#314354;fontColor=#ffffff;" parent="GCJxB1RPTs2br_yxcwbv-275" vertex="1">
          <mxGeometry width="30" height="30" as="geometry" />
        </mxCell>
        <mxCell id="GCJxB1RPTs2br_yxcwbv-277" value="Plan_from_location" style="shape=partialRectangle;connectable=0;fillColor=#647687;top=0;left=0;bottom=0;right=0;align=left;spacingLeft=6;overflow=hidden;strokeColor=#314354;fontColor=#ffffff;" parent="GCJxB1RPTs2br_yxcwbv-275" vertex="1">
          <mxGeometry x="30" width="130" height="30" as="geometry" />
        </mxCell>
        <mxCell id="GCJxB1RPTs2br_yxcwbv-278" value="" style="shape=partialRectangle;collapsible=0;dropTarget=0;pointerEvents=0;fillColor=#647687;top=0;left=0;bottom=0;right=0;points=[[0,0.5],[1,0.5]];portConstraint=eastwest;strokeColor=#314354;fontColor=#ffffff;" parent="GCJxB1RPTs2br_yxcwbv-271" vertex="1">
          <mxGeometry y="90" width="160" height="30" as="geometry" />
        </mxCell>
        <mxCell id="GCJxB1RPTs2br_yxcwbv-279" value="" style="shape=partialRectangle;connectable=0;fillColor=#647687;top=0;left=0;bottom=0;right=0;editable=1;overflow=hidden;strokeColor=#314354;fontColor=#ffffff;" parent="GCJxB1RPTs2br_yxcwbv-278" vertex="1">
          <mxGeometry width="30" height="30" as="geometry" />
        </mxCell>
        <mxCell id="GCJxB1RPTs2br_yxcwbv-280" value="Plan_to_location" style="shape=partialRectangle;connectable=0;fillColor=#647687;top=0;left=0;bottom=0;right=0;align=left;spacingLeft=6;overflow=hidden;strokeColor=#314354;fontColor=#ffffff;" parent="GCJxB1RPTs2br_yxcwbv-278" vertex="1">
          <mxGeometry x="30" width="130" height="30" as="geometry" />
        </mxCell>
        <mxCell id="GCJxB1RPTs2br_yxcwbv-281" value="" style="shape=partialRectangle;collapsible=0;dropTarget=0;pointerEvents=0;fillColor=#647687;top=0;left=0;bottom=0;right=0;points=[[0,0.5],[1,0.5]];portConstraint=eastwest;strokeColor=#314354;fontColor=#ffffff;" parent="GCJxB1RPTs2br_yxcwbv-271" vertex="1">
          <mxGeometry y="120" width="160" height="30" as="geometry" />
        </mxCell>
        <mxCell id="GCJxB1RPTs2br_yxcwbv-282" value="" style="shape=partialRectangle;connectable=0;fillColor=#647687;top=0;left=0;bottom=0;right=0;editable=1;overflow=hidden;strokeColor=#314354;fontColor=#ffffff;" parent="GCJxB1RPTs2br_yxcwbv-281" vertex="1">
          <mxGeometry width="30" height="30" as="geometry" />
        </mxCell>
        <mxCell id="GCJxB1RPTs2br_yxcwbv-283" value="Plan_time" style="shape=partialRectangle;connectable=0;fillColor=#647687;top=0;left=0;bottom=0;right=0;align=left;spacingLeft=6;overflow=hidden;strokeColor=#314354;fontColor=#ffffff;" parent="GCJxB1RPTs2br_yxcwbv-281" vertex="1">
          <mxGeometry x="30" width="130" height="30" as="geometry" />
        </mxCell>
        <mxCell id="GCJxB1RPTs2br_yxcwbv-284" value="" style="shape=partialRectangle;collapsible=0;dropTarget=0;pointerEvents=0;fillColor=#647687;top=0;left=0;bottom=0;right=0;points=[[0,0.5],[1,0.5]];portConstraint=eastwest;strokeColor=#314354;fontColor=#ffffff;" parent="GCJxB1RPTs2br_yxcwbv-271" vertex="1">
          <mxGeometry y="150" width="160" height="30" as="geometry" />
        </mxCell>
        <mxCell id="GCJxB1RPTs2br_yxcwbv-285" value="" style="shape=partialRectangle;connectable=0;fillColor=#647687;top=0;left=0;bottom=0;right=0;editable=1;overflow=hidden;strokeColor=#314354;fontColor=#ffffff;" parent="GCJxB1RPTs2br_yxcwbv-284" vertex="1">
          <mxGeometry width="30" height="30" as="geometry" />
        </mxCell>
        <mxCell id="GCJxB1RPTs2br_yxcwbv-286" value="Actual_from_location" style="shape=partialRectangle;connectable=0;fillColor=#647687;top=0;left=0;bottom=0;right=0;align=left;spacingLeft=6;overflow=hidden;strokeColor=#314354;fontColor=#ffffff;" parent="GCJxB1RPTs2br_yxcwbv-284" vertex="1">
          <mxGeometry x="30" width="130" height="30" as="geometry" />
        </mxCell>
        <mxCell id="GCJxB1RPTs2br_yxcwbv-287" value="" style="shape=partialRectangle;collapsible=0;dropTarget=0;pointerEvents=0;fillColor=#647687;top=0;left=0;bottom=0;right=0;points=[[0,0.5],[1,0.5]];portConstraint=eastwest;strokeColor=#314354;fontColor=#ffffff;" parent="GCJxB1RPTs2br_yxcwbv-271" vertex="1">
          <mxGeometry y="180" width="160" height="30" as="geometry" />
        </mxCell>
        <mxCell id="GCJxB1RPTs2br_yxcwbv-288" value="" style="shape=partialRectangle;connectable=0;fillColor=#647687;top=0;left=0;bottom=0;right=0;editable=1;overflow=hidden;strokeColor=#314354;fontColor=#ffffff;" parent="GCJxB1RPTs2br_yxcwbv-287" vertex="1">
          <mxGeometry width="30" height="30" as="geometry" />
        </mxCell>
        <mxCell id="GCJxB1RPTs2br_yxcwbv-289" value="Actual_to_location" style="shape=partialRectangle;connectable=0;fillColor=#647687;top=0;left=0;bottom=0;right=0;align=left;spacingLeft=6;overflow=hidden;strokeColor=#314354;fontColor=#ffffff;" parent="GCJxB1RPTs2br_yxcwbv-287" vertex="1">
          <mxGeometry x="30" width="130" height="30" as="geometry" />
        </mxCell>
        <mxCell id="GCJxB1RPTs2br_yxcwbv-290" value="" style="shape=partialRectangle;collapsible=0;dropTarget=0;pointerEvents=0;fillColor=#647687;top=0;left=0;bottom=0;right=0;points=[[0,0.5],[1,0.5]];portConstraint=eastwest;strokeColor=#314354;fontColor=#ffffff;" parent="GCJxB1RPTs2br_yxcwbv-271" vertex="1">
          <mxGeometry y="210" width="160" height="30" as="geometry" />
        </mxCell>
        <mxCell id="GCJxB1RPTs2br_yxcwbv-291" value="" style="shape=partialRectangle;connectable=0;fillColor=#647687;top=0;left=0;bottom=0;right=0;editable=1;overflow=hidden;strokeColor=#314354;fontColor=#ffffff;" parent="GCJxB1RPTs2br_yxcwbv-290" vertex="1">
          <mxGeometry width="30" height="30" as="geometry" />
        </mxCell>
        <mxCell id="GCJxB1RPTs2br_yxcwbv-292" value="Actual_time" style="shape=partialRectangle;connectable=0;fillColor=#647687;top=0;left=0;bottom=0;right=0;align=left;spacingLeft=6;overflow=hidden;strokeColor=#314354;fontColor=#ffffff;" parent="GCJxB1RPTs2br_yxcwbv-290" vertex="1">
          <mxGeometry x="30" width="130" height="30" as="geometry" />
        </mxCell>
        <mxCell id="GCJxB1RPTs2br_yxcwbv-293" value="Location" style="shape=table;startSize=30;container=1;collapsible=1;childLayout=tableLayout;fixedRows=1;rowLines=0;fontStyle=1;align=center;resizeLast=1;fillColor=#647687;strokeColor=#314354;fontColor=#ffffff;" parent="1" vertex="1">
          <mxGeometry x="930" y="910" width="160" height="240" as="geometry" />
        </mxCell>
        <mxCell id="GCJxB1RPTs2br_yxcwbv-294" value="" style="shape=partialRectangle;collapsible=0;dropTarget=0;pointerEvents=0;fillColor=#647687;top=0;left=0;bottom=1;right=0;points=[[0,0.5],[1,0.5]];portConstraint=eastwest;strokeColor=#314354;fontColor=#ffffff;" parent="GCJxB1RPTs2br_yxcwbv-293" vertex="1">
          <mxGeometry y="30" width="160" height="30" as="geometry" />
        </mxCell>
        <mxCell id="GCJxB1RPTs2br_yxcwbv-295" value="PK" style="shape=partialRectangle;connectable=0;fillColor=#647687;top=0;left=0;bottom=0;right=0;fontStyle=1;overflow=hidden;strokeColor=#314354;fontColor=#ffffff;" parent="GCJxB1RPTs2br_yxcwbv-294" vertex="1">
          <mxGeometry width="30" height="30" as="geometry" />
        </mxCell>
        <mxCell id="GCJxB1RPTs2br_yxcwbv-296" value="Location_id" style="shape=partialRectangle;connectable=0;fillColor=#647687;top=0;left=0;bottom=0;right=0;align=left;spacingLeft=6;fontStyle=5;overflow=hidden;strokeColor=#314354;fontColor=#ffffff;" parent="GCJxB1RPTs2br_yxcwbv-294" vertex="1">
          <mxGeometry x="30" width="130" height="30" as="geometry" />
        </mxCell>
        <mxCell id="GCJxB1RPTs2br_yxcwbv-297" value="" style="shape=partialRectangle;collapsible=0;dropTarget=0;pointerEvents=0;fillColor=#647687;top=0;left=0;bottom=0;right=0;points=[[0,0.5],[1,0.5]];portConstraint=eastwest;strokeColor=#314354;fontColor=#ffffff;" parent="GCJxB1RPTs2br_yxcwbv-293" vertex="1">
          <mxGeometry y="60" width="160" height="30" as="geometry" />
        </mxCell>
        <mxCell id="GCJxB1RPTs2br_yxcwbv-298" value="" style="shape=partialRectangle;connectable=0;fillColor=#647687;top=0;left=0;bottom=0;right=0;editable=1;overflow=hidden;strokeColor=#314354;fontColor=#ffffff;" parent="GCJxB1RPTs2br_yxcwbv-297" vertex="1">
          <mxGeometry width="30" height="30" as="geometry" />
        </mxCell>
        <mxCell id="GCJxB1RPTs2br_yxcwbv-299" value="Location_type" style="shape=partialRectangle;connectable=0;fillColor=#647687;top=0;left=0;bottom=0;right=0;align=left;spacingLeft=6;overflow=hidden;strokeColor=#314354;fontColor=#ffffff;" parent="GCJxB1RPTs2br_yxcwbv-297" vertex="1">
          <mxGeometry x="30" width="130" height="30" as="geometry" />
        </mxCell>
        <mxCell id="GCJxB1RPTs2br_yxcwbv-300" value="" style="shape=partialRectangle;collapsible=0;dropTarget=0;pointerEvents=0;fillColor=#647687;top=0;left=0;bottom=0;right=0;points=[[0,0.5],[1,0.5]];portConstraint=eastwest;strokeColor=#314354;fontColor=#ffffff;" parent="GCJxB1RPTs2br_yxcwbv-293" vertex="1">
          <mxGeometry y="90" width="160" height="30" as="geometry" />
        </mxCell>
        <mxCell id="GCJxB1RPTs2br_yxcwbv-301" value="" style="shape=partialRectangle;connectable=0;fillColor=#647687;top=0;left=0;bottom=0;right=0;editable=1;overflow=hidden;strokeColor=#314354;fontColor=#ffffff;" parent="GCJxB1RPTs2br_yxcwbv-300" vertex="1">
          <mxGeometry width="30" height="30" as="geometry" />
        </mxCell>
        <mxCell id="GCJxB1RPTs2br_yxcwbv-302" value="Country" style="shape=partialRectangle;connectable=0;fillColor=#647687;top=0;left=0;bottom=0;right=0;align=left;spacingLeft=6;overflow=hidden;strokeColor=#314354;fontColor=#ffffff;" parent="GCJxB1RPTs2br_yxcwbv-300" vertex="1">
          <mxGeometry x="30" width="130" height="30" as="geometry" />
        </mxCell>
        <mxCell id="GCJxB1RPTs2br_yxcwbv-303" value="" style="shape=partialRectangle;collapsible=0;dropTarget=0;pointerEvents=0;fillColor=#647687;top=0;left=0;bottom=0;right=0;points=[[0,0.5],[1,0.5]];portConstraint=eastwest;strokeColor=#314354;fontColor=#ffffff;" parent="GCJxB1RPTs2br_yxcwbv-293" vertex="1">
          <mxGeometry y="120" width="160" height="30" as="geometry" />
        </mxCell>
        <mxCell id="GCJxB1RPTs2br_yxcwbv-304" value="" style="shape=partialRectangle;connectable=0;fillColor=#647687;top=0;left=0;bottom=0;right=0;editable=1;overflow=hidden;strokeColor=#314354;fontColor=#ffffff;" parent="GCJxB1RPTs2br_yxcwbv-303" vertex="1">
          <mxGeometry width="30" height="30" as="geometry" />
        </mxCell>
        <mxCell id="GCJxB1RPTs2br_yxcwbv-305" value="Province" style="shape=partialRectangle;connectable=0;fillColor=#647687;top=0;left=0;bottom=0;right=0;align=left;spacingLeft=6;overflow=hidden;strokeColor=#314354;fontColor=#ffffff;" parent="GCJxB1RPTs2br_yxcwbv-303" vertex="1">
          <mxGeometry x="30" width="130" height="30" as="geometry" />
        </mxCell>
        <mxCell id="GCJxB1RPTs2br_yxcwbv-306" value="" style="shape=partialRectangle;collapsible=0;dropTarget=0;pointerEvents=0;fillColor=#647687;top=0;left=0;bottom=0;right=0;points=[[0,0.5],[1,0.5]];portConstraint=eastwest;strokeColor=#314354;fontColor=#ffffff;" parent="GCJxB1RPTs2br_yxcwbv-293" vertex="1">
          <mxGeometry y="150" width="160" height="30" as="geometry" />
        </mxCell>
        <mxCell id="GCJxB1RPTs2br_yxcwbv-307" value="" style="shape=partialRectangle;connectable=0;fillColor=#647687;top=0;left=0;bottom=0;right=0;editable=1;overflow=hidden;strokeColor=#314354;fontColor=#ffffff;" parent="GCJxB1RPTs2br_yxcwbv-306" vertex="1">
          <mxGeometry width="30" height="30" as="geometry" />
        </mxCell>
        <mxCell id="GCJxB1RPTs2br_yxcwbv-308" value="City" style="shape=partialRectangle;connectable=0;fillColor=#647687;top=0;left=0;bottom=0;right=0;align=left;spacingLeft=6;overflow=hidden;strokeColor=#314354;fontColor=#ffffff;" parent="GCJxB1RPTs2br_yxcwbv-306" vertex="1">
          <mxGeometry x="30" width="130" height="30" as="geometry" />
        </mxCell>
        <mxCell id="GCJxB1RPTs2br_yxcwbv-309" value="" style="shape=partialRectangle;collapsible=0;dropTarget=0;pointerEvents=0;fillColor=#647687;top=0;left=0;bottom=0;right=0;points=[[0,0.5],[1,0.5]];portConstraint=eastwest;strokeColor=#314354;fontColor=#ffffff;" parent="GCJxB1RPTs2br_yxcwbv-293" vertex="1">
          <mxGeometry y="180" width="160" height="30" as="geometry" />
        </mxCell>
        <mxCell id="GCJxB1RPTs2br_yxcwbv-310" value="" style="shape=partialRectangle;connectable=0;fillColor=#647687;top=0;left=0;bottom=0;right=0;editable=1;overflow=hidden;strokeColor=#314354;fontColor=#ffffff;" parent="GCJxB1RPTs2br_yxcwbv-309" vertex="1">
          <mxGeometry width="30" height="30" as="geometry" />
        </mxCell>
        <mxCell id="GCJxB1RPTs2br_yxcwbv-311" value="Street" style="shape=partialRectangle;connectable=0;fillColor=#647687;top=0;left=0;bottom=0;right=0;align=left;spacingLeft=6;overflow=hidden;strokeColor=#314354;fontColor=#ffffff;" parent="GCJxB1RPTs2br_yxcwbv-309" vertex="1">
          <mxGeometry x="30" width="130" height="30" as="geometry" />
        </mxCell>
        <mxCell id="GCJxB1RPTs2br_yxcwbv-312" value="" style="shape=partialRectangle;collapsible=0;dropTarget=0;pointerEvents=0;fillColor=#647687;top=0;left=0;bottom=0;right=0;points=[[0,0.5],[1,0.5]];portConstraint=eastwest;strokeColor=#314354;fontColor=#ffffff;" parent="GCJxB1RPTs2br_yxcwbv-293" vertex="1">
          <mxGeometry y="210" width="160" height="30" as="geometry" />
        </mxCell>
        <mxCell id="GCJxB1RPTs2br_yxcwbv-313" value="" style="shape=partialRectangle;connectable=0;fillColor=#647687;top=0;left=0;bottom=0;right=0;editable=1;overflow=hidden;strokeColor=#314354;fontColor=#ffffff;" parent="GCJxB1RPTs2br_yxcwbv-312" vertex="1">
          <mxGeometry width="30" height="30" as="geometry" />
        </mxCell>
        <mxCell id="GCJxB1RPTs2br_yxcwbv-314" value="Actual_time" style="shape=partialRectangle;connectable=0;fillColor=#647687;top=0;left=0;bottom=0;right=0;align=left;spacingLeft=6;overflow=hidden;strokeColor=#314354;fontColor=#ffffff;" parent="GCJxB1RPTs2br_yxcwbv-312" vertex="1">
          <mxGeometry x="30" width="130" height="30" as="geometry" />
        </mxCell>
        <object label="User_account" id="ZkZUkiDWdm4FwWsZ6An6-1">
          <mxCell style="shape=table;startSize=30;container=1;collapsible=1;childLayout=tableLayout;fixedRows=1;rowLines=0;fontStyle=1;align=center;resizeLast=1;fillColor=#d5e8d4;strokeColor=#82b366;" vertex="1" parent="1">
            <mxGeometry x="300" y="405" width="145" height="180" as="geometry" />
          </mxCell>
        </object>
        <mxCell id="ZkZUkiDWdm4FwWsZ6An6-2" value="" style="shape=partialRectangle;collapsible=0;dropTarget=0;pointerEvents=0;fillColor=#d5e8d4;top=0;left=0;bottom=1;right=0;points=[[0,0.5],[1,0.5]];portConstraint=eastwest;strokeColor=#82b366;" vertex="1" parent="ZkZUkiDWdm4FwWsZ6An6-1">
          <mxGeometry y="30" width="145" height="30" as="geometry" />
        </mxCell>
        <mxCell id="ZkZUkiDWdm4FwWsZ6An6-3" value="PK" style="shape=partialRectangle;connectable=0;fillColor=#d5e8d4;top=0;left=0;bottom=0;right=0;fontStyle=1;overflow=hidden;strokeColor=#82b366;" vertex="1" parent="ZkZUkiDWdm4FwWsZ6An6-2">
          <mxGeometry width="30" height="30" as="geometry" />
        </mxCell>
        <mxCell id="ZkZUkiDWdm4FwWsZ6An6-4" value="Account_id" style="shape=partialRectangle;connectable=0;fillColor=#d5e8d4;top=0;left=0;bottom=0;right=0;align=left;spacingLeft=6;fontStyle=5;overflow=hidden;strokeColor=#82b366;" vertex="1" parent="ZkZUkiDWdm4FwWsZ6An6-2">
          <mxGeometry x="30" width="115" height="30" as="geometry" />
        </mxCell>
        <mxCell id="ZkZUkiDWdm4FwWsZ6An6-5" value="" style="shape=partialRectangle;collapsible=0;dropTarget=0;pointerEvents=0;fillColor=#d5e8d4;top=0;left=0;bottom=0;right=0;points=[[0,0.5],[1,0.5]];portConstraint=eastwest;strokeColor=#82b366;" vertex="1" parent="ZkZUkiDWdm4FwWsZ6An6-1">
          <mxGeometry y="60" width="145" height="30" as="geometry" />
        </mxCell>
        <mxCell id="ZkZUkiDWdm4FwWsZ6An6-6" value="" style="shape=partialRectangle;connectable=0;fillColor=#d5e8d4;top=0;left=0;bottom=0;right=0;editable=1;overflow=hidden;strokeColor=#82b366;" vertex="1" parent="ZkZUkiDWdm4FwWsZ6An6-5">
          <mxGeometry width="30" height="30" as="geometry" />
        </mxCell>
        <mxCell id="ZkZUkiDWdm4FwWsZ6An6-7" value="user_id" style="shape=partialRectangle;connectable=0;fillColor=#d5e8d4;top=0;left=0;bottom=0;right=0;align=left;spacingLeft=6;overflow=hidden;strokeColor=#82b366;" vertex="1" parent="ZkZUkiDWdm4FwWsZ6An6-5">
          <mxGeometry x="30" width="115" height="30" as="geometry" />
        </mxCell>
        <mxCell id="ZkZUkiDWdm4FwWsZ6An6-8" value="" style="shape=partialRectangle;collapsible=0;dropTarget=0;pointerEvents=0;fillColor=#d5e8d4;top=0;left=0;bottom=0;right=0;points=[[0,0.5],[1,0.5]];portConstraint=eastwest;strokeColor=#82b366;" vertex="1" parent="ZkZUkiDWdm4FwWsZ6An6-1">
          <mxGeometry y="90" width="145" height="30" as="geometry" />
        </mxCell>
        <mxCell id="ZkZUkiDWdm4FwWsZ6An6-9" value="" style="shape=partialRectangle;connectable=0;fillColor=#d5e8d4;top=0;left=0;bottom=0;right=0;editable=1;overflow=hidden;strokeColor=#82b366;" vertex="1" parent="ZkZUkiDWdm4FwWsZ6An6-8">
          <mxGeometry width="30" height="30" as="geometry" />
        </mxCell>
        <mxCell id="ZkZUkiDWdm4FwWsZ6An6-10" value="Bank_name" style="shape=partialRectangle;connectable=0;fillColor=#d5e8d4;top=0;left=0;bottom=0;right=0;align=left;spacingLeft=6;overflow=hidden;strokeColor=#82b366;" vertex="1" parent="ZkZUkiDWdm4FwWsZ6An6-8">
          <mxGeometry x="30" width="115" height="30" as="geometry" />
        </mxCell>
        <mxCell id="ZkZUkiDWdm4FwWsZ6An6-11" value="" style="shape=partialRectangle;collapsible=0;dropTarget=0;pointerEvents=0;fillColor=#d5e8d4;top=0;left=0;bottom=0;right=0;points=[[0,0.5],[1,0.5]];portConstraint=eastwest;strokeColor=#82b366;" vertex="1" parent="ZkZUkiDWdm4FwWsZ6An6-1">
          <mxGeometry y="120" width="145" height="30" as="geometry" />
        </mxCell>
        <mxCell id="ZkZUkiDWdm4FwWsZ6An6-12" value="" style="shape=partialRectangle;connectable=0;fillColor=#d5e8d4;top=0;left=0;bottom=0;right=0;editable=1;overflow=hidden;strokeColor=#82b366;" vertex="1" parent="ZkZUkiDWdm4FwWsZ6An6-11">
          <mxGeometry width="30" height="30" as="geometry" />
        </mxCell>
        <mxCell id="ZkZUkiDWdm4FwWsZ6An6-13" value="Bank_no" style="shape=partialRectangle;connectable=0;fillColor=#d5e8d4;top=0;left=0;bottom=0;right=0;align=left;spacingLeft=6;overflow=hidden;strokeColor=#82b366;" vertex="1" parent="ZkZUkiDWdm4FwWsZ6An6-11">
          <mxGeometry x="30" width="115" height="30" as="geometry" />
        </mxCell>
        <mxCell id="ZkZUkiDWdm4FwWsZ6An6-14" value="" style="shape=partialRectangle;collapsible=0;dropTarget=0;pointerEvents=0;fillColor=#d5e8d4;top=0;left=0;bottom=0;right=0;points=[[0,0.5],[1,0.5]];portConstraint=eastwest;strokeColor=#82b366;" vertex="1" parent="ZkZUkiDWdm4FwWsZ6An6-1">
          <mxGeometry y="150" width="145" height="30" as="geometry" />
        </mxCell>
        <mxCell id="ZkZUkiDWdm4FwWsZ6An6-15" value="" style="shape=partialRectangle;connectable=0;fillColor=#d5e8d4;top=0;left=0;bottom=0;right=0;editable=1;overflow=hidden;strokeColor=#82b366;" vertex="1" parent="ZkZUkiDWdm4FwWsZ6An6-14">
          <mxGeometry width="30" height="30" as="geometry" />
        </mxCell>
        <mxCell id="ZkZUkiDWdm4FwWsZ6An6-16" value="Validate_time" style="shape=partialRectangle;connectable=0;fillColor=#d5e8d4;top=0;left=0;bottom=0;right=0;align=left;spacingLeft=6;overflow=hidden;strokeColor=#82b366;" vertex="1" parent="ZkZUkiDWdm4FwWsZ6An6-14">
          <mxGeometry x="30" width="115" height="30" as="geometry" />
        </mxCell>
        <mxCell id="ZkZUkiDWdm4FwWsZ6An6-17" style="edgeStyle=orthogonalEdgeStyle;rounded=0;orthogonalLoop=1;jettySize=auto;html=1;exitX=0;exitY=0.5;exitDx=0;exitDy=0;entryX=0;entryY=0.5;entryDx=0;entryDy=0;" edge="1" parent="1" source="GCJxB1RPTs2br_yxcwbv-77" target="ZkZUkiDWdm4FwWsZ6An6-5">
          <mxGeometry relative="1" as="geometry">
            <Array as="points">
              <mxPoint x="420" y="270" />
              <mxPoint x="420" y="390" />
              <mxPoint x="280" y="390" />
              <mxPoint x="280" y="480" />
            </Array>
          </mxGeometry>
        </mxCell>
      </root>
    </mxGraphModel>
  </diagram>
</mxfile>
